<?xml version="1.0" standalone="no"?>
<!DOCTYPE svg PUBLIC "-//W3C//DTD SVG 20010904//EN"
 "http://www.w3.org/TR/2001/REC-SVG-20010904/DTD/svg10.dtd">
<svg version="1.0" xmlns="http://www.w3.org/2000/svg"
 width="1000.000000pt" height="667.000000pt" viewBox="0 0 1000.000000 667.000000"
 preserveAspectRatio="xMidYMid meet">

<g transform="translate(0.000000,667.000000) scale(0.100000,-0.100000)"
fill="#000000" stroke="none">
<path d="M105 6663 c17 -2 296 -30 620 -63 325 -32 658 -66 740 -75 197 -20
244 -20 252 1 3 9 -1 36 -9 59 -15 41 -15 43 5 64 l21 21 -829 -1 c-457 -1
-816 -4 -800 -6z"/>
<path d="M2145 6655 c17 -8 97 -44 179 -79 81 -36 157 -73 167 -82 25 -22 24
-56 -1 -79 -35 -32 -108 -17 -259 55 -107 51 -135 60 -142 49 -11 -18 -2 -48
22 -75 11 -11 18 -29 17 -40 -1 -10 2 -56 6 -102 l9 -83 42 -24 c52 -31 63
-31 75 0 11 30 29 32 60 5 16 -14 37 -20 72 -20 29 0 47 4 43 10 -3 5 12 9 39
8 24 0 49 2 54 6 6 4 22 4 35 1 26 -7 47 -57 47 -113 0 -60 64 -89 135 -62 20
8 25 15 20 28 -22 53 -25 94 -9 122 18 30 23 30 104 10 25 -6 70 -9 100 -5 74
7 83 9 99 19 8 5 16 4 20 -2 12 -19 61 -32 121 -32 32 0 62 -4 65 -10 13 -20
25 -9 25 23 0 17 9 51 19 74 11 23 17 44 14 47 -14 13 -1 78 26 138 17 37 31
73 31 80 0 22 52 88 86 109 l34 21 48 -22 c26 -11 60 -28 75 -35 16 -8 37 -15
48 -15 10 0 19 -5 19 -11 0 -6 7 -8 16 -5 9 3 29 -3 46 -15 20 -15 32 -18 37
-11 4 7 12 8 21 2 10 -7 11 -10 3 -10 -22 0 -14 -35 12 -60 21 -19 27 -21 40
-10 9 7 15 23 14 34 -3 46 0 52 17 34 22 -22 11 -78 -22 -118 -36 -43 -17 -37
35 10 24 22 52 40 62 40 10 0 21 5 24 10 9 15 41 12 55 -5 7 -8 21 -15 31 -15
9 0 24 -6 31 -13 25 -25 76 -37 103 -25 14 6 25 16 25 21 0 5 12 7 26 4 22 -4
25 -2 20 15 -2 12 3 32 12 46 15 23 15 25 1 20 -12 -5 -15 1 -15 23 0 24 2 27
14 16 12 -10 14 -9 10 3 -2 8 -42 36 -89 62 l-84 47 -1010 0 c-875 0 -1006 -2
-980 -14z m1795 -82 c0 -3 -7 -3 -15 1 -8 3 -15 1 -15 -5 0 -16 43 -28 58 -16
7 5 16 7 19 3 8 -8 -15 -26 -33 -26 -20 0 -58 36 -50 48 6 10 36 6 36 -5z
m-1305 -125 c-18 -11 -35 -2 -35 17 0 12 5 12 25 3 22 -10 23 -13 10 -20z
m238 5 c12 -7 8 -78 -5 -91 -14 -14 -72 -16 -97 -2 -27 14 -47 66 -31 84 18
23 101 28 133 9z m307 -59 c0 -15 -6 -24 -15 -24 -15 0 -21 40 -9 53 12 11 24
-3 24 -29z"/>
<path d="M4491 6666 c2 -2 20 -11 39 -20 23 -11 29 -12 18 -3 -10 8 -16 16
-13 18 2 3 -8 6 -22 7 -15 1 -25 0 -22 -2z"/>
<path d="M4690 6649 c14 -10 35 -28 47 -38 14 -11 32 -17 50 -15 19 3 22 2 11
-3 -15 -7 -14 -9 7 -20 20 -9 25 -8 25 3 0 16 16 19 25 4 3 -5 11 -7 18 -4 7
2 26 -8 43 -23 43 -40 100 -59 121 -41 12 9 15 9 9 1 -4 -8 -2 -13 7 -13 8 0
22 -12 32 -26 13 -20 14 -28 4 -40 -9 -11 -8 -14 9 -14 14 0 20 -5 16 -14 -3
-9 4 -16 22 -20 25 -7 25 -8 8 -21 -16 -11 -23 -11 -46 1 -15 8 -31 14 -35 14
-4 -1 8 -9 27 -19 25 -14 41 -16 60 -10 24 9 24 8 6 -6 -15 -11 -16 -15 -5
-16 25 -2 44 3 52 14 6 8 7 5 3 -6 -4 -12 6 -29 30 -52 36 -36 54 -43 54 -24
0 5 5 7 10 4 6 -3 10 -2 10 4 0 5 21 16 47 23 38 11 50 20 66 52 19 36 21 37
34 20 7 -10 13 -34 14 -53 1 -92 10 -125 41 -152 16 -15 44 -34 61 -42 27 -14
35 -14 66 -1 36 15 50 29 52 52 4 34 19 72 29 72 5 0 21 -5 37 -11 15 -5 41
-12 58 -14 38 -4 59 -9 114 -29 24 -9 69 -16 100 -17 69 0 162 -19 183 -37 25
-20 122 -33 157 -19 53 20 201 -36 201 -76 0 -5 14 -27 31 -48 21 -27 43 -42
72 -50 72 -19 170 -51 222 -72 88 -36 176 -104 167 -130 -5 -17 31 -40 73 -45
36 -4 53 1 92 24 69 41 120 55 178 48 52 -6 152 -29 195 -44 14 -5 47 -12 73
-15 27 -3 70 -15 95 -26 26 -12 64 -28 84 -37 21 -10 38 -22 38 -29 0 -13 40
-39 40 -26 0 4 4 2 9 -6 8 -12 16 -10 46 13 30 24 40 26 64 18 l28 -10 -4 41
c-4 35 -1 46 21 66 21 20 28 22 41 11 13 -11 13 -15 0 -33 -20 -29 -19 -44 6
-57 16 -9 24 -8 39 5 15 14 22 15 42 4 19 -10 17 -6 -11 27 -18 21 -53 59 -78
83 -41 41 -43 44 -28 62 16 17 19 16 56 -23 42 -44 52 -46 42 -9 -4 16 -11 21
-24 18 -13 -4 -19 0 -19 12 0 9 -6 23 -12 29 -10 10 -10 15 2 22 13 8 13 10
-2 10 -29 0 -29 17 0 48 34 37 33 88 -2 102 -17 7 -18 9 -3 9 18 1 25 21 7 21
-5 0 -10 5 -10 12 0 6 3 8 6 5 13 -13 44 14 44 38 0 13 4 25 10 27 10 3 -6
146 -19 163 -15 19 1 84 26 110 20 19 22 25 9 25 -18 0 -22 15 -6 25 25 16
105 22 140 11 20 -6 22 -5 10 4 -12 9 -10 10 13 6 17 -4 27 -2 27 5 0 8 5 8
15 -1 12 -10 19 -10 27 -2 17 17 28 15 22 -3 -4 -8 -1 -15 5 -15 6 0 11 7 11
15 0 8 5 15 10 15 6 0 13 -7 16 -15 4 -8 12 -15 20 -15 8 0 14 -5 14 -11 0 -5
5 -7 10 -4 6 3 10 3 10 -2 0 -11 73 -10 82 1 6 9 38 -16 38 -31 0 -4 11 -21
24 -36 14 -16 22 -35 19 -43 -3 -10 0 -12 10 -9 17 7 31 -31 14 -42 -7 -4 -3
-9 9 -14 28 -11 56 -11 49 1 -9 15 1 12 18 -5 25 -24 28 6 6 54 -10 24 -16 48
-12 54 4 6 1 7 -7 2 -10 -6 -12 -4 -7 8 3 10 3 17 -2 17 -5 0 -11 9 -14 19 -7
28 14 17 38 -19 23 -34 28 -36 44 -16 10 12 7 18 -18 31 -17 8 -31 17 -31 18
0 11 83 -4 104 -19 31 -23 32 -32 5 -36 -12 -2 -31 -15 -41 -29 -17 -23 -18
-29 -6 -48 11 -18 11 -23 -2 -31 -13 -9 -13 -10 0 -11 8 -1 23 0 33 1 10 1 30
-10 44 -24 14 -14 21 -26 14 -26 -6 0 -11 -6 -11 -14 0 -8 -6 -16 -12 -19 -9
-3 -7 -9 6 -19 10 -8 16 -21 13 -29 -4 -10 -6 -9 -6 4 -1 17 -3 17 -30 -2 -28
-20 -46 -67 -30 -77 7 -4 53 13 131 51 33 16 76 8 83 -15 12 -36 8 -87 -9
-106 -9 -10 -16 -23 -15 -27 1 -14 -43 -47 -63 -47 -10 0 -18 -4 -18 -8 0 -5
-25 -35 -55 -67 -54 -57 -65 -75 -45 -75 6 0 10 -6 9 -12 -4 -24 20 -66 40
-73 12 -3 21 -15 21 -26 0 -10 6 -19 13 -19 9 0 8 -3 -2 -9 -11 -7 -9 -13 10
-32 13 -13 25 -26 25 -29 10 -38 19 -50 36 -50 10 0 16 -4 13 -10 -3 -5 1 -34
8 -64 8 -29 11 -59 7 -66 -4 -6 -1 -37 6 -68 8 -31 14 -60 14 -63 0 -4 -18
-19 -40 -34 -22 -15 -40 -34 -40 -43 0 -11 3 -12 15 -2 8 6 19 9 25 5 13 -8
13 -45 0 -45 -17 0 -11 -15 20 -50 l30 -33 -26 -24 c-15 -13 -24 -26 -22 -28
2 -2 21 0 43 5 27 6 47 5 64 -3 29 -14 43 -55 27 -76 -9 -12 -7 -12 12 -3 63
33 61 33 80 11 9 -11 25 -30 35 -41 9 -12 17 -27 17 -35 0 -7 6 -13 14 -13 14
0 32 -36 28 -52 -1 -5 3 -8 8 -8 11 0 13 -70 2 -86 -4 -6 -15 -13 -24 -17 -23
-8 -23 -27 0 -28 14 0 14 -2 2 -7 -8 -4 -16 -22 -18 -39 -2 -27 2 -33 17 -33
24 0 38 -20 21 -30 -9 -5 -9 -9 -1 -14 6 -4 9 -11 6 -16 -3 -5 -1 -18 4 -29 8
-15 7 -20 -6 -25 -14 -6 -14 -8 3 -20 10 -8 19 -20 20 -28 4 -52 4 -53 13 -39
5 8 8 -15 7 -58 -2 -40 2 -74 6 -77 5 -4 2 -14 -7 -24 -8 -9 -18 -28 -21 -41
-21 -104 -22 -114 -7 -142 8 -16 24 -32 34 -34 11 -3 18 -11 15 -18 -2 -7 1
-18 7 -24 9 -9 8 -14 -3 -22 -13 -8 -13 -11 0 -22 10 -8 15 -28 14 -59 -1 -32
2 -46 9 -41 7 4 8 0 4 -11 -5 -14 -3 -16 12 -11 11 3 26 -1 36 -11 16 -16 16
-18 -7 -36 -18 -14 -19 -17 -4 -11 14 5 17 3 11 -6 -6 -10 0 -12 22 -7 21 5
36 1 55 -13 27 -22 41 -74 25 -90 -6 -6 6 -2 25 7 20 9 33 22 30 27 -3 6 4 1
16 -9 12 -11 22 -25 22 -33 0 -16 5 -16 30 -3 25 13 70 2 70 -17 0 -14 3 -18
45 -66 14 -16 23 -33 20 -38 -4 -5 0 -12 8 -15 9 -3 21 -19 27 -35 7 -16 16
-29 21 -29 5 0 9 -18 9 -40 0 -42 -3 -44 -54 -40 l-29 2 20 -35 c14 -22 18
-39 12 -48 -13 -21 -11 -26 15 -33 14 -3 28 -15 31 -26 3 -11 10 -20 15 -20
16 0 -3 -40 -36 -75 -28 -31 -37 -34 -54 -25 -11 6 -20 21 -20 35 0 13 -5 36
-10 50 -13 35 -58 32 -79 -6 -13 -24 -12 -30 17 -85 17 -32 36 -58 42 -56 6 1
8 -3 4 -9 -3 -6 5 -23 20 -38 41 -40 76 -84 82 -103 3 -10 10 -18 16 -18 6 0
17 -8 24 -17 11 -15 13 307 14 1925 l0 1942 -1857 0 c-1021 0 -1853 -4 -1847
-8 9 -9 493 -346 847 -591 97 -68 184 -132 192 -144 17 -24 20 -80 5 -107 -13
-24 -81 -36 -112 -19 -13 6 -138 96 -278 199 -140 102 -311 226 -380 275 -69
48 -147 105 -175 125 -27 20 -123 89 -213 153 l-162 117 -678 0 -677 -1 25
-20z m3474 -314 c-4 -8 -8 -15 -10 -15 -2 0 -4 7 -4 15 0 8 4 15 10 15 5 0 7
-7 4 -15z m959 -497 c-23 -11 -31 -28 -13 -28 6 0 10 3 10 8 0 4 11 8 25 8 14
1 25 -3 25 -9 0 -6 7 -19 17 -29 9 -10 13 -21 9 -26 -4 -4 -14 1 -21 11 -17
23 -48 18 -54 -8 -3 -16 -1 -17 11 -7 8 6 18 8 22 4 4 -4 13 -7 19 -7 7 0 13
-8 15 -17 2 -12 -3 -18 -15 -18 -14 0 -15 -2 -4 -9 10 -6 2 -9 -22 -8 -21 0
-38 5 -38 9 -1 4 -2 14 -3 21 -1 6 -17 17 -36 22 -29 9 -35 15 -35 38 -1 36
13 45 24 16 8 -23 8 -23 14 3 7 25 22 35 57 36 8 0 5 -4 -7 -10z m7 -622 c0
-8 -7 -16 -15 -20 -12 -4 -13 -2 -2 14 14 24 17 25 17 6z m239 -73 c25 -54 -5
-103 -62 -103 -87 0 -116 109 -37 138 34 13 86 -6 99 -35z m16 29 c-3 -3 -11
0 -18 7 -9 10 -8 11 6 5 10 -3 15 -9 12 -12z m-219 -63 c4 -8 9 -8 17 0 7 7
14 7 24 0 17 -14 17 -39 1 -39 -7 0 0 -12 16 -26 16 -14 35 -23 42 -20 17 7
27 -9 19 -33 -10 -33 -46 -34 -78 -1 -15 16 -38 30 -49 32 -23 3 -44 57 -34
84 6 17 32 18 42 3z m84 -163 c0 -3 -4 -8 -10 -11 -5 -3 -10 -1 -10 4 0 6 5
11 10 11 6 0 10 -2 10 -4z m385 -1140 c15 6 17 3 12 -18 -6 -21 -1 -31 23 -51
19 -16 25 -27 17 -30 -9 -4 -9 -6 0 -6 6 -1 15 4 18 9 12 20 26 10 15 -10 -15
-28 -42 -25 -75 10 -16 17 -35 28 -41 26 -14 -5 -37 18 -27 27 3 4 0 13 -7 22
-10 12 -10 18 0 30 12 14 15 14 30 0 10 -9 24 -13 35 -9z"/>
<path d="M9315 5160 c4 -6 -5 -10 -19 -10 -20 0 -26 -5 -26 -23 0 -13 5 -28
12 -35 15 -15 45 -16 53 -2 8 14 -5 80 -17 80 -5 0 -6 -4 -3 -10z"/>
<path d="M4587 6619 c7 -7 15 -10 18 -7 3 3 -2 9 -12 12 -14 6 -15 5 -6 -5z"/>
<path d="M4737 6563 c-11 -11 -8 -21 9 -27 14 -5 15 -4 5 8 -9 11 -9 15 1 19
7 3 8 6 2 6 -6 1 -14 -2 -17 -6z"/>
<path d="M0 3255 l0 -3255 728 0 c810 0 739 -4 1453 85 156 20 339 42 407 50
67 8 175 21 240 30 218 28 1106 144 1255 164 81 10 150 21 153 23 5 6 -49 269
-72 348 -9 30 -25 87 -36 125 -11 39 -24 80 -29 93 -5 13 -9 37 -9 55 0 31
-77 290 -105 355 -21 47 -19 54 17 50 27 -2 34 -9 44 -38 36 -105 125 -392
135 -435 6 -27 20 -76 30 -107 11 -32 19 -77 19 -101 0 -24 9 -95 20 -158 11
-63 23 -129 26 -148 l5 -34 98 7 98 7 33 -31 c29 -27 32 -35 28 -76 -3 -45 -3
-45 24 -42 25 4 27 2 22 -19 -5 -17 -1 -28 11 -37 13 -9 15 -15 7 -20 -15 -9
-15 -17 3 -40 12 -16 17 -17 30 -6 12 10 19 10 27 2 7 -7 9 -13 5 -13 -4 -1
-11 -3 -17 -4 -5 -1 -14 -3 -20 -4 -14 -2 -12 -27 3 -40 10 -8 17 -7 27 2 10
10 12 9 7 -4 -10 -30 14 -39 111 -39 113 0 137 13 103 56 -12 15 -21 39 -21
53 0 30 24 69 33 54 3 -5 27 -7 54 -4 l48 6 -3 42 c-3 30 1 44 13 50 14 8 4
16 -49 43 -73 36 -110 73 -104 105 4 17 -1 20 -26 20 -41 0 -45 16 -10 37 16
10 37 22 47 28 11 7 17 7 17 1 0 -8 101 22 119 35 1 2 -3 12 -11 23 -8 12 -18
18 -23 13 -5 -4 -5 -1 -1 5 9 16 -17 56 -29 45 -5 -4 -5 -2 -1 5 8 14 -29 92
-53 110 -9 7 -11 12 -6 13 6 0 9 27 7 67 -3 46 -7 62 -13 51 -5 -9 -29 -19
-54 -22 -24 -4 -47 -11 -50 -17 -4 -5 -11 -9 -16 -9 -20 0 11 37 40 50 17 7
29 16 26 20 -3 5 9 15 26 24 28 14 30 14 25 -1 -6 -14 -4 -14 14 2 12 11 16
21 10 25 -5 3 8 14 29 23 46 21 101 102 174 258 53 112 150 396 144 419 -3 8
-8 24 -13 34 -6 16 -4 18 11 12 21 -8 35 8 35 42 0 17 -8 26 -29 33 -16 6 -32
17 -35 26 -6 16 5 15 60 -2 16 -5 23 -2 27 15 6 22 -16 41 -60 55 -17 5 -23
14 -23 36 0 42 34 54 66 22 32 -32 42 -29 50 15 3 20 15 76 25 124 19 90 26
243 10 252 -4 3 -34 6 -65 7 -31 1 -59 6 -62 10 -3 5 23 8 58 6 l63 -2 3 49
c2 27 -4 82 -13 123 -9 40 -13 82 -10 93 5 16 2 20 -20 20 -23 0 -25 3 -19 28
5 19 4 24 -5 17 -13 -13 -51 -156 -52 -199 -1 -61 -8 -67 -88 -72 -95 -6 -107
-2 -119 46 -8 33 -7 39 7 38 32 0 176 14 183 18 4 3 7 58 5 122 -2 109 -3 117
-22 118 -11 1 -26 2 -32 3 -23 2 -14 26 22 61 36 35 34 61 -3 41 -29 -15 -37
-14 -22 4 7 8 10 22 6 30 -3 8 -2 15 2 15 5 0 8 10 9 23 1 66 2 68 22 58 10
-6 21 -7 25 -3 4 3 4 -1 0 -11 -3 -9 -10 -14 -15 -11 -5 3 -12 -3 -16 -12 -4
-10 -2 -19 5 -22 7 -2 12 -12 12 -23 0 -10 4 -19 10 -19 5 0 7 -6 5 -12 -7
-19 32 -77 58 -87 20 -8 20 -10 5 -16 -10 -4 -18 -13 -18 -20 0 -7 -6 -16 -12
-18 -8 -3 -5 -6 6 -6 12 -1 16 -6 12 -16 -3 -8 0 -15 5 -15 6 0 9 9 6 20 -5
20 18 41 38 34 6 -2 20 12 33 32 13 20 18 33 12 29 -8 -5 -11 -3 -8 6 3 8 14
19 26 25 13 6 38 43 58 83 19 39 44 77 56 84 11 6 30 35 43 64 25 55 42 68
133 97 28 10 52 23 52 29 0 7 -12 30 -25 52 -14 22 -25 50 -25 63 0 12 -12 46
-27 75 -30 60 -53 138 -53 185 0 26 4 32 20 32 17 0 19 3 10 19 -15 29 -12 48
9 54 11 2 21 15 23 28 2 14 9 23 17 21 8 -2 26 8 40 21 58 54 115 63 160 24 9
-8 30 -22 46 -30 17 -9 26 -17 20 -18 -47 -6 -98 -5 -139 3 -33 7 -56 7 -72
-1 -21 -9 -23 -13 -12 -38 6 -16 19 -35 28 -43 8 -8 21 -29 28 -45 15 -35 47
-60 58 -44 3 6 -7 24 -22 41 -25 26 -26 29 -7 19 18 -9 22 -9 17 2 -3 10 5 16
27 21 48 9 59 8 53 -9 -4 -8 1 -26 10 -40 19 -28 8 -33 -37 -16 -21 8 -26 6
-30 -10 -3 -10 -1 -22 4 -25 5 -3 9 1 10 8 0 7 5 3 11 -9 12 -25 28 -31 28
-11 0 9 3 9 12 0 20 -20 67 -14 96 13 15 14 21 25 14 25 -21 0 -13 18 10 22
14 2 24 13 29 32 7 26 4 34 -29 62 l-37 33 35 -9 c19 -6 41 -10 47 -10 16 0
17 36 2 46 -19 11 -232 86 -261 91 -27 5 -28 7 -24 58 2 28 9 61 15 73 6 11
11 32 11 46 0 27 23 56 60 76 11 6 18 15 15 20 -3 5 0 12 6 15 7 5 10 -5 7
-31 -3 -34 0 -39 20 -42 17 -3 22 -10 22 -33 0 -37 22 -47 57 -24 26 17 26 17
20 -5 -5 -20 -3 -22 24 -16 21 4 31 1 35 -9 4 -8 14 -15 24 -15 10 0 21 -9 25
-19 3 -11 13 -22 21 -25 8 -3 12 -11 8 -17 -4 -8 3 -9 25 -4 30 6 31 5 32 -27
0 -27 2 -29 8 -13 5 11 6 26 4 33 -8 20 8 14 28 -13 11 -13 25 -22 32 -19 7 2
19 -10 26 -28 8 -18 16 -36 18 -40 2 -4 -26 -30 -62 -59 -38 -30 -64 -57 -61
-65 3 -7 8 -96 12 -199 7 -206 4 -217 -57 -230 -22 -5 -29 -12 -29 -31 0 -27
3 -29 30 -12 15 10 22 9 37 -3 11 -10 56 -21 113 -27 94 -11 200 -40 153 -41
-26 -1 -24 3 -48 -156 -33 -223 -61 -334 -103 -405 -15 -25 -25 -49 -24 -54 5
-17 -23 -26 -85 -26 -35 0 -63 -4 -63 -10 0 -5 5 -10 10 -10 6 0 10 -6 10 -14
0 -8 9 -17 19 -21 13 -4 18 -12 15 -23 -3 -9 6 -4 21 13 l27 30 -18 -35 c-9
-19 -31 -57 -48 -85 -32 -51 -59 -105 -52 -105 2 0 16 20 30 45 20 34 33 45
51 45 16 0 25 -6 25 -16 0 -9 -5 -12 -11 -8 -7 4 -9 2 -5 -7 3 -8 9 -22 12
-32 5 -13 12 -16 28 -11 18 6 19 5 7 -9 -7 -9 -11 -22 -8 -29 2 -7 0 -23 -4
-36 -6 -14 -5 -21 0 -17 5 3 12 1 16 -5 3 -5 1 -10 -5 -10 -7 0 -9 -7 -6 -16
4 -10 2 -13 -6 -8 -8 5 -9 2 -5 -9 8 -21 -1 -22 -24 -1 -17 15 -19 15 -34 0
-9 -9 -12 -16 -6 -16 7 0 7 -8 1 -26 -10 -24 -9 -26 13 -22 23 4 23 4 9 -24
-8 -16 -21 -28 -30 -27 -30 3 -42 -1 -42 -12 0 -6 -6 -17 -14 -25 -13 -12 -16
-12 -25 3 -9 16 -12 16 -21 3 -5 -9 -10 -10 -10 -3 0 12 -17 12 -37 0 -19 -12
-33 1 -33 28 0 35 -11 36 -56 5 -22 -15 -65 -33 -95 -41 -68 -16 -109 -44
-109 -72 0 -18 -2 -19 -10 -7 -8 14 -7 78 4 155 3 17 18 60 35 97 17 37 31 78
31 92 0 13 6 29 14 35 7 6 16 27 19 46 3 20 23 55 46 83 23 27 41 51 41 54 0
8 -75 -1 -199 -23 -99 -17 -141 -36 -141 -64 0 -7 -7 -18 -15 -25 -12 -10 -13
-15 -4 -21 8 -4 13 -32 13 -68 1 -34 4 -61 8 -61 4 0 5 -7 2 -15 -4 -11 3 -19
25 -26 17 -6 31 -15 31 -19 0 -5 -14 -22 -30 -39 -17 -17 -26 -32 -20 -36 5
-3 10 -11 10 -16 0 -6 -6 -7 -12 -3 -10 6 -10 4 0 -8 10 -13 11 -28 2 -70 -6
-29 -13 -71 -16 -93 -2 -22 -11 -83 -19 -135 -28 -184 -27 -180 -41 -310 -3
-30 -10 -60 -16 -67 -5 -7 -7 -16 -4 -21 3 -6 -1 -29 -8 -53 -22 -67 -33 -125
-46 -234 -6 -55 -18 -122 -25 -150 -8 -27 -17 -77 -21 -110 -3 -33 -12 -67
-19 -75 -7 -8 -16 -28 -19 -45 -4 -16 -13 -33 -19 -37 -7 -4 24 -8 68 -8 179
0 444 -21 556 -44 135 -27 201 -54 225 -90 16 -26 16 -28 -7 -52 -29 -31 -111
-56 -304 -95 -145 -29 -202 -32 -264 -13 -23 7 -23 5 9 -34 18 -23 42 -42 52
-42 19 0 25 -25 8 -35 -6 -4 -17 -1 -25 5 -11 9 -39 10 -101 5 -54 -4 -82 -10
-73 -15 15 -10 18 -8 -53 -30 -56 -17 -51 -43 15 -75 l54 -25 2247 0 2246 0
-2 911 -3 912 -45 13 c-57 17 -321 19 -450 4 -52 -6 -111 -11 -130 -11 -45 0
-216 -17 -350 -34 -58 -8 -154 -17 -215 -20 -60 -3 -154 -13 -207 -21 -71 -11
-102 -13 -117 -5 -29 16 -86 90 -105 136 -23 54 -44 75 -76 75 -33 0 -49 18
-83 90 -63 135 -111 203 -167 241 l-37 25 18 35 c10 19 18 39 19 46 0 21 -28
40 -69 47 -42 6 -81 45 -96 96 -11 39 -45 99 -100 176 -27 38 -54 77 -60 86
-27 43 -127 149 -180 191 -73 58 -198 173 -169 156 48 -28 105 16 79 62 -26
44 -27 49 -19 66 14 34 12 78 -8 116 -11 22 -15 36 -10 33 12 -7 27 10 36 41
5 16 1 28 -16 45 -22 22 -25 31 -29 73 -4 58 -2 60 53 58 65 -2 81 10 72 51
-9 45 -33 68 -63 61 -22 -6 -23 -5 -10 11 8 10 9 15 3 11 -14 -8 -29 24 -16
32 5 3 12 13 15 21 4 12 6 11 6 -3 1 -14 4 -15 14 -5 8 7 12 22 10 33 -4 19
-4 19 7 2 11 -18 13 -18 31 -1 10 9 19 23 19 31 0 7 5 13 10 13 6 0 10 -9 10
-20 0 -11 9 -29 21 -41 16 -16 23 -18 35 -8 8 6 14 21 13 33 -1 20 -2 18 -15
-23 -6 -20 -34 6 -34 31 0 11 -14 45 -31 76 -29 54 -30 58 -15 83 17 29 22 54
6 29 -6 -9 -10 -10 -10 -3 0 6 5 15 10 18 6 3 10 14 9 23 0 9 -3 12 -5 6 -3
-7 -14 -9 -26 -6 -14 3 -19 1 -14 -6 4 -7 2 -12 -3 -12 -13 0 -13 7 -2 35 5
13 3 28 -7 43 -13 20 -13 22 7 22 14 0 20 4 15 12 -5 8 -2 9 10 5 16 -6 16 -5
1 15 -19 28 -19 42 0 35 8 -4 17 -2 20 3 4 6 -1 10 -9 10 -9 0 -16 7 -16 15 0
17 -12 19 -26 5 -7 -7 -11 -6 -11 4 0 8 4 13 9 10 4 -3 8 0 8 5 0 6 -4 11 -9
11 -5 0 -12 7 -15 16 -3 8 -2 13 2 10 4 -2 8 3 8 13 0 13 -7 16 -28 13 -27 -4
-28 -2 -28 37 0 28 -4 41 -14 41 -8 0 -16 6 -19 14 -4 10 4 15 24 18 20 3 29
0 29 -9 0 -8 5 -11 11 -8 6 4 8 10 5 13 -3 3 -1 11 6 19 9 11 7 18 -6 31 -16
16 -18 16 -30 0 -16 -22 -23 -22 -42 -4 -19 19 -8 106 14 106 12 0 12 3 2 15
-7 8 -19 15 -26 15 -8 0 -14 5 -14 11 0 5 4 8 9 5 5 -3 12 1 15 10 3 8 11 12
17 8 8 -5 8 -1 0 14 -17 33 -33 38 -25 8 6 -24 5 -24 -20 -13 -22 10 -39 41
-18 35 4 -2 8 1 10 7 2 5 -12 14 -30 19 -23 6 -27 11 -15 13 13 4 16 11 11 31
-9 37 -24 52 -24 24 0 -18 -5 -22 -25 -19 -13 1 -28 7 -32 12 -4 4 -2 5 5 1
19 -11 14 8 -9 38 -11 14 -17 31 -13 37 5 8 3 9 -6 4 -9 -5 -10 -2 -5 14 5 15
1 23 -12 28 -10 3 -26 13 -35 21 -24 20 -23 10 2 -18 25 -29 21 -34 -16 -20
-20 8 -24 14 -16 19 10 6 9 11 -3 21 -9 7 -14 19 -11 26 6 16 -29 38 -44 29
-6 -3 -10 3 -10 13 0 28 61 23 75 -6 6 -11 17 -27 24 -36 13 -15 16 -15 38 -1
19 13 27 14 39 4 8 -6 17 -9 20 -6 3 3 -4 10 -15 17 -16 8 -27 8 -43 -1 -18
-10 -24 -8 -35 7 -8 11 -12 27 -10 36 3 11 -2 20 -15 24 -16 5 -18 8 -7 15 10
6 5 9 -17 9 -20 0 -41 9 -57 26 -14 14 -30 23 -36 20 -5 -4 -12 3 -16 14 -8
24 -18 25 -35 5 -11 -13 -14 -13 -27 0 -14 14 -41 20 -72 15 -8 -1 -1 10 15
23 25 22 31 24 45 11 8 -8 29 -13 45 -13 27 2 27 2 4 6 -14 3 -40 16 -57 29
l-33 25 -1 -23 c-1 -17 -3 -18 -6 -5 -2 9 -11 17 -19 17 -9 0 -22 7 -31 15
-12 12 -18 13 -29 4 -15 -13 -19 1 -5 16 5 6 5 19 1 30 -8 19 -9 19 -9 -2 -1
-23 -21 -33 -21 -11 0 6 -7 4 -18 -6 -18 -16 -19 -15 -20 16 0 18 5 39 11 47
7 9 -3 5 -21 -8 -18 -12 -30 -26 -28 -30 3 -4 -1 -8 -9 -8 -8 0 -15 4 -15 9 0
4 5 8 11 8 11 0 3 38 -11 53 -8 9 -43 -7 -70 -32 -13 -13 -15 -12 -18 2 -2 9
-7 17 -12 17 -5 0 -7 -7 -3 -16 4 -12 0 -14 -23 -8 -16 4 -32 12 -36 18 -5 8
-8 7 -8 -1 0 -7 -9 -13 -20 -13 -17 0 -19 5 -14 24 6 24 5 25 -31 15 -27 -8
-40 -8 -45 1 -5 8 -11 6 -20 -4 -7 -9 -16 -13 -21 -10 -5 3 -12 -1 -15 -9 -6
-16 -39 -29 -48 -19 -3 3 -1 11 5 19 9 9 8 13 0 13 -6 0 -11 -5 -11 -10 0 -16
-44 -30 -52 -17 -5 8 -13 6 -25 -6 -12 -10 -27 -14 -41 -10 -16 4 -22 1 -22
-11 0 -21 -26 -20 -40 2 -11 16 -11 16 -6 -1 4 -13 2 -16 -6 -10 -21 12 -50
11 -55 -4 -3 -8 -14 -11 -29 -7 -18 5 -30 0 -43 -15 -10 -11 -30 -21 -45 -21
-15 0 -29 -7 -32 -15 -4 -8 -10 -15 -16 -15 -5 0 -6 6 -2 13 6 8 3 8 -9 -2 -9
-7 -23 -11 -30 -8 -23 9 -82 -8 -82 -23 0 -8 -4 -20 -8 -27 -4 -6 -3 -14 3
-18 5 -3 10 -11 10 -18 0 -8 -3 -8 -12 1 -16 16 -29 15 -27 0 3 -17 -11 -48
-21 -48 -4 0 -7 8 -6 18 1 11 -5 16 -18 14 -11 -2 -15 1 -11 7 10 17 -12 13
-30 -5 -15 -15 -17 -15 -31 2 -14 18 -15 17 -10 -11 6 -28 5 -29 -8 -11 -12
14 -22 17 -43 11 -15 -4 -37 -9 -48 -11 -11 -1 -35 -7 -52 -13 -18 -5 -33 -6
-33 -1 0 12 -63 -7 -72 -22 -25 -42 -27 -44 -38 -28 -8 13 -10 13 -10 -2 0 -9
-8 -19 -18 -23 -11 -3 -24 -17 -31 -31 -9 -21 -16 -25 -36 -20 -20 5 -23 3
-18 -11 5 -13 3 -15 -12 -9 -11 4 -25 0 -36 -10 -27 -25 -24 -44 9 -44 25 -1
26 -1 7 -12 -24 -14 -35 -29 -29 -40 3 -4 -4 -8 -14 -8 -11 0 -23 -7 -26 -16
-7 -18 10 -44 28 -43 7 0 6 2 -1 6 -7 2 -13 14 -13 26 0 18 2 19 10 7 8 -13
11 -12 24 5 9 11 16 25 16 32 0 6 9 9 20 6 l21 -6 -21 -14 c-11 -8 -20 -22
-19 -31 0 -12 3 -11 9 5 6 15 15 21 25 17 9 -4 14 -13 11 -21 -3 -8 -6 -18 -6
-21 0 -4 -5 0 -10 8 -6 10 -10 11 -10 3 0 -7 -7 -13 -15 -13 -13 0 -14 -4 -5
-20 6 -11 7 -21 3 -21 -4 -1 -12 -2 -18 -4 -5 -1 -14 -3 -18 -3 -4 -1 5 -14
20 -28 15 -15 20 -21 11 -14 -15 10 -18 10 -18 -3 0 -10 -6 -14 -15 -11 -18 7
-20 -17 -4 -33 17 -17 -7 -26 -32 -12 -12 6 -19 7 -16 2 3 -5 -10 -24 -29 -42
-19 -19 -34 -40 -34 -47 0 -7 -8 -18 -18 -23 -9 -6 -12 -11 -7 -11 6 0 15 4
21 10 11 11 25 2 42 -27 10 -19 10 -23 -3 -23 -8 0 -15 -5 -15 -12 0 -6 -3 -8
-6 -5 -4 4 -1 13 6 22 8 9 8 15 2 15 -18 0 -54 -58 -41 -65 6 -4 16 -2 22 4
18 18 23 13 21 -20 -2 -35 -14 -53 -14 -21 0 24 -14 29 -26 10 -4 -7 -3 -8 4
-4 7 4 12 2 12 -4 0 -6 -7 -13 -15 -16 -8 -4 -13 -10 -10 -14 3 -4 -2 -13 -10
-20 -8 -7 -14 -22 -14 -34 1 -17 2 -18 6 -3 3 13 10 16 26 11 33 -9 45 -24 20
-24 -11 0 -26 -6 -32 -14 -9 -11 -8 -17 7 -28 14 -9 17 -19 11 -33 -4 -11 -8
-14 -8 -7 -1 6 -6 12 -12 12 -6 0 -9 -9 -6 -20 3 -14 -3 -26 -20 -40 -15 -12
-23 -26 -20 -35 4 -8 2 -17 -3 -20 -6 -4 -10 -11 -10 -16 0 -6 4 -8 9 -5 5 3
11 -1 15 -9 3 -9 -3 -19 -16 -26 -11 -6 -18 -7 -15 -1 4 5 -1 18 -9 28 -15 18
-15 18 -10 0 5 -13 2 -17 -9 -12 -9 3 -15 0 -15 -9 0 -8 7 -15 15 -15 20 0 19
-17 -1 -28 -11 -6 -13 -12 -6 -16 6 -3 13 -2 17 4 3 5 11 10 16 10 6 0 8 -4 5
-9 -3 -5 0 -11 7 -14 10 -4 13 2 9 21 -4 26 -4 26 11 7 24 -31 1 -102 -30 -91
-7 3 -13 1 -13 -3 0 -5 7 -11 15 -15 12 -4 13 -10 3 -33 -6 -15 -20 -35 -30
-45 -22 -20 -24 -32 -3 -24 8 3 15 1 15 -4 0 -6 -4 -10 -9 -10 -5 0 -9 -17 -8
-37 0 -21 2 -30 4 -20 3 9 10 17 17 17 7 0 13 7 14 15 1 8 3 22 4 30 1 8 4 13
6 10 3 -3 11 0 18 6 21 17 76 30 71 16 -2 -7 -10 -13 -18 -13 -8 -1 -20 -2
-27 -3 -7 0 -10 -6 -7 -12 4 -6 -2 -13 -14 -16 -21 -5 -30 -23 -11 -23 6 0 10
-4 10 -10 0 -5 -7 -7 -15 -4 -28 11 -17 -34 11 -49 18 -10 23 -16 15 -22 -7
-4 -20 0 -30 9 -19 18 -46 22 -36 6 3 -6 -1 -10 -9 -10 -8 0 -18 -5 -22 -12
-5 -8 -2 -9 9 -5 10 3 17 2 17 -3 0 -5 7 -7 15 -4 9 4 15 1 15 -7 0 -10 3 -10
12 -1 22 22 31 13 13 -14 -9 -14 -14 -28 -12 -31 9 -8 59 30 67 51 7 16 9 17
9 4 1 -9 -3 -20 -9 -23 -5 -3 -10 -15 -10 -26 0 -11 -4 -17 -10 -14 -5 3 -18
1 -27 -4 -10 -6 -14 -11 -8 -11 5 0 -1 -7 -14 -17 -23 -15 -23 -17 -6 -30 11
-7 13 -13 6 -13 -7 0 -10 -4 -7 -9 4 -5 -3 -7 -14 -4 -21 6 -25 -3 -11 -26 5
-7 14 -10 20 -7 6 4 11 0 11 -8 0 -9 -7 -16 -15 -16 -8 0 -15 -7 -15 -16 0 -8
5 -12 10 -9 6 4 8 -8 4 -32 -5 -34 -4 -36 9 -19 11 15 15 16 19 4 3 -7 -1 -23
-9 -33 -11 -16 -15 -17 -22 -6 -5 8 -11 9 -15 3 -3 -5 7 -15 23 -22 43 -18 50
-93 7 -77 -16 6 -15 4 0 -22 15 -25 15 -32 5 -45 -15 -17 -36 -22 -26 -6 3 6
-1 10 -9 10 -19 0 -30 -17 -16 -25 25 -15 42 -88 27 -112 -14 -23 -37 -3 -33
29 3 23 -1 32 -15 35 -19 5 -32 31 -27 53 2 6 -5 17 -15 23 -14 9 -19 9 -26
-2 -8 -12 -13 -12 -35 3 -23 15 -30 27 -28 48 1 3 -5 11 -13 18 -10 8 -11 17
-5 28 15 28 27 127 21 173 -6 43 -9 45 -71 53 -14 1 -32 5 -40 8 -33 12 -98
28 -115 28 -10 0 -26 -10 -37 -22 -16 -19 -18 -30 -12 -63 8 -41 8 -144 0
-180 -3 -11 -5 -26 -5 -33 -1 -7 -12 -23 -26 -36 -22 -20 -31 -23 -63 -15 -20
4 -39 8 -42 9 -64 10 -80 14 -80 22 0 5 -4 7 -9 3 -12 -7 -31 26 -31 54 0 12
-4 21 -10 21 -5 0 -10 9 -10 19 0 20 -37 63 -99 114 -30 25 -36 26 -55 14 -11
-8 -38 -17 -59 -20 -20 -3 -44 -12 -52 -20 -8 -8 -28 -14 -45 -13 -16 1 -30
-1 -30 -6 0 -4 -7 -8 -15 -8 -9 0 -18 -6 -21 -14 -10 -25 -32 -26 -76 -3 -24
12 -44 22 -44 22 -1 0 1 18 5 40 7 43 -19 105 -44 105 -7 0 -23 16 -35 36 -13
19 -33 40 -47 45 -23 9 -56 66 -47 81 3 5 18 8 33 8 23 0 31 7 42 32 15 37 14
75 -2 95 -7 7 -15 34 -20 59 -9 49 -39 98 -70 115 -11 5 -56 12 -101 14 -49 2
-84 8 -88 16 -6 9 -16 7 -41 -8 -38 -21 -49 -51 -27 -67 8 -6 25 -31 38 -56
19 -36 22 -55 17 -107 -3 -43 -11 -71 -23 -84 -26 -29 -19 -65 22 -118 27 -35
34 -53 34 -89 0 -38 -5 -50 -35 -77 -50 -47 -53 -74 -15 -114 22 -22 29 -38
25 -49 -4 -9 -16 -39 -27 -67 -11 -27 -26 -57 -34 -66 -13 -14 -13 -24 -3 -65
7 -27 18 -58 26 -70 9 -15 10 -29 3 -54 -6 -19 -10 -47 -10 -61 0 -15 -7 -32
-15 -39 -20 -17 -19 -44 6 -116 l22 -62 -22 -35 c-15 -25 -27 -34 -40 -30 -12
3 -33 -8 -59 -32 -36 -32 -40 -39 -30 -60 12 -26 42 -41 103 -50 63 -10 109
-27 122 -44 18 -24 16 -31 -11 -31 -14 0 -28 -5 -31 -11 -4 -6 -13 -8 -20 -5
-7 2 -25 -2 -41 -11 -16 -8 -36 -16 -44 -17 -37 -5 -76 -20 -94 -35 -14 -12
-40 -16 -109 -16 -89 0 -92 -1 -123 -31 -24 -24 -37 -31 -58 -27 -22 5 -26 2
-26 -19 0 -29 17 -48 36 -41 7 3 26 -5 41 -17 24 -19 28 -20 31 -6 7 35 102
-16 102 -55 0 -10 5 -21 10 -24 14 -8 13 -33 -2 -52 -44 -54 -70 -75 -89 -70
-23 6 -89 -10 -89 -23 0 -4 25 -6 55 -4 40 4 57 2 60 -8 9 -21 93 -25 380 -15
175 6 285 25 285 49 0 6 8 17 17 24 21 14 24 12 -47 49 -56 29 -102 34 -127
13 -17 -14 -170 -49 -241 -55 -65 -6 -97 12 -111 63 -8 28 -7 43 5 65 32 63
86 74 269 58 178 -16 180 -15 224 15 37 26 45 27 140 25 56 -1 118 -8 139 -16
52 -18 70 -16 140 12 69 28 99 31 125 10 18 -13 120 -13 223 0 36 5 42 3 47
-15 3 -11 12 -20 21 -20 12 0 16 10 16 45 0 25 -4 45 -10 45 -5 0 -9 -3 -9 -7
4 -23 -2 -43 -10 -38 -6 3 -10 28 -9 55 0 42 -4 53 -29 74 l-28 26 37 32 c29
27 37 42 41 78 6 64 67 191 113 234 70 66 148 126 163 126 9 0 29 7 45 15 15
8 32 13 37 10 4 -3 36 1 71 9 38 9 91 13 133 10 51 -4 77 -1 95 10 14 8 35 20
48 25 12 6 22 15 22 21 0 6 5 8 11 4 8 -5 8 -9 -1 -14 -6 -4 -10 -11 -8 -16 1
-5 -9 -10 -24 -12 -17 -2 -28 -9 -28 -18 0 -8 -6 -14 -12 -13 -21 4 -82 -12
-98 -26 -18 -15 -52 -16 -62 -1 -5 7 -14 6 -31 -3 -13 -7 -32 -11 -43 -9 -13
2 -19 -2 -17 -15 1 -13 -4 -17 -15 -12 -41 16 -78 17 -91 1 -7 -9 -24 -16 -37
-16 -22 0 -48 -30 -49 -55 0 -5 -7 -10 -15 -11 -34 -2 -40 -5 -71 -36 -33 -34
-79 -120 -79 -150 0 -35 19 -17 46 43 27 59 105 142 112 120 2 -6 -10 -22 -26
-36 -42 -35 -108 -174 -93 -194 6 -9 18 -30 26 -48 16 -34 44 -60 32 -30 -10
27 13 20 55 -18 21 -20 62 -46 91 -59 39 -17 55 -31 63 -54 7 -17 9 -33 7 -36
-9 -9 -60 22 -116 71 -46 41 -165 106 -155 85 32 -63 28 -60 163 -135 85 -47
145 -87 145 -97 0 -15 -103 31 -158 71 -30 21 -62 39 -70 39 -9 0 -31 17 -49
37 -28 30 -36 34 -44 22 -19 -30 -10 -55 26 -72 20 -9 42 -17 50 -17 8 0 22
-11 31 -25 8 -13 39 -37 68 -53 28 -17 58 -37 66 -46 12 -16 11 -17 -16 -10
-16 4 -44 20 -62 36 -18 15 -39 28 -47 28 -7 0 -29 15 -48 33 -19 17 -46 33
-60 33 -24 2 -26 -2 -25 -37 0 -25 5 -39 13 -39 7 0 15 -6 18 -14 4 -11 -1
-14 -21 -13 -26 2 -27 0 -30 -55 -2 -45 -7 -58 -19 -58 -11 0 -14 -6 -8 -22 6
-22 16 -111 16 -151 0 -24 18 -22 27 4 5 11 11 20 15 20 4 -1 17 -1 28 -1 20
0 21 1 5 25 -20 31 -10 32 23 3 l25 -23 -18 28 c-25 41 -9 48 22 10 25 -30 31
-32 69 -26 41 5 124 -20 161 -50 18 -14 -3 -27 -44 -27 -18 0 -45 -6 -62 -13
-25 -10 -29 -15 -20 -31 6 -10 8 -39 4 -66 -5 -36 -1 -59 15 -96 13 -31 21
-73 22 -114 1 -62 18 -97 40 -83 12 7 187 33 228 33 56 0 59 -26 6 -50 -23
-11 -53 -20 -67 -20 -14 0 -56 -7 -94 -15 -39 -8 -89 -11 -113 -8 -29 4 -43 2
-43 -6 0 -6 18 -11 43 -11 l42 -1 -38 -14 c-50 -17 -53 -21 -37 -50 15 -29 31
-31 68 -11 46 25 156 72 185 80 22 5 27 3 27 -12 0 -14 -27 -31 -107 -67 -60
-26 -114 -52 -120 -58 -7 -5 -13 -26 -13 -46 0 -20 -5 -42 -12 -49 -17 -17 16
-15 67 3 46 17 74 20 60 6 -6 -5 -42 -19 -81 -30 -60 -18 -73 -25 -78 -47 -4
-13 -11 -22 -16 -19 -5 3 -7 12 -3 20 3 8 0 15 -5 15 -16 0 -52 -50 -52 -72 0
-24 -18 -58 -30 -58 -16 0 -12 43 6 69 16 22 16 23 -5 16 -29 -9 -27 13 2 24
32 13 43 30 46 75 1 32 -1 37 -14 32 -9 -3 -21 -6 -25 -6 -5 0 -14 -18 -20
-40 -12 -45 -26 -51 -39 -17 -9 24 -7 28 56 93 39 39 42 52 17 82 -5 6 -49
-20 -76 -46 l-28 -26 0 25 c0 16 12 32 35 49 36 26 40 36 27 58 -7 10 -15 8
-36 -9 -23 -18 -30 -20 -37 -8 -5 8 -8 28 -7 44 3 25 9 32 43 43 73 23 91 71
60 163 -10 30 -14 74 -13 132 2 48 2 87 1 87 -10 0 -53 -25 -53 -31 0 -4 -12
-9 -27 -11 -24 -3 -29 -9 -34 -43 l-6 -40 -2 37 c0 20 -5 40 -11 43 -5 3 -10
20 -10 36 0 20 -4 29 -12 26 -7 -2 -18 3 -25 12 -10 14 -11 12 -7 -9 5 -20 3
-22 -5 -10 -6 8 -11 11 -11 6 0 -5 -12 1 -26 15 l-27 24 13 -24 c10 -20 8 -27
-18 -60 -40 -49 -77 -53 -122 -11 -37 35 -54 33 -20 -2 12 -13 29 -33 37 -45
13 -20 13 -24 0 -38 -9 -8 -20 -15 -26 -15 -6 0 -11 -4 -11 -10 0 -5 -7 -7
-15 -4 -12 5 -11 9 6 23 20 16 20 16 -11 40 -40 29 -60 16 -41 -26 7 -16 11
-29 9 -30 -1 -1 6 -9 17 -17 32 -24 1 -18 -36 7 -29 20 -34 29 -34 64 0 39 0
40 -23 25 -12 -8 -33 -12 -46 -10 -16 3 -23 1 -19 -7 2 -8 -9 -15 -31 -19 -20
-4 -36 -11 -36 -15 0 -5 -10 -7 -22 -6 -13 1 -34 -5 -46 -13 -22 -13 -101 -12
-227 4 -16 2 -59 7 -95 10 -52 6 -70 13 -92 34 -27 27 -47 34 -143 46 -27 3
-63 12 -79 20 -16 8 -35 14 -41 14 -7 0 -39 9 -72 19 -38 12 -96 20 -159 22
-55 2 -109 5 -121 7 -26 5 -21 22 7 22 18 0 18 2 5 33 -8 17 -19 31 -25 30 -5
-2 -10 5 -10 15 0 15 -6 18 -30 14 -19 -3 -42 4 -67 19 -21 13 -46 22 -55 21
-14 -3 -18 4 -18 26 0 80 -45 125 -101 102 -24 -10 -27 -18 -31 -72 -3 -37
-10 -63 -19 -68 -8 -5 -41 -9 -74 -9 -33 0 -94 -5 -135 -12 -41 -7 -88 -12
-103 -12 -32 0 -56 27 -57 64 0 14 -8 33 -18 42 -35 32 -109 14 -100 -23 2 -6
-10 -21 -25 -33 -24 -18 -29 -19 -37 -7 -8 12 -10 12 -16 -3 -3 -9 -11 -17
-16 -17 -6 0 -8 7 -4 15 6 18 1 19 -25 5 -15 -8 -19 -8 -17 2 2 7 8 16 13 20
6 5 3 8 -7 8 -11 0 -15 5 -12 15 4 8 2 15 -4 15 -6 0 -12 -5 -14 -10 -2 -7
-29 -7 -81 0 -66 8 -82 7 -102 -6 -22 -14 -24 -14 -34 5 -26 47 -3 99 38 86
10 -3 22 -1 25 4 8 12 38 9 89 -8 26 -9 63 -11 115 -7 43 4 97 8 122 9 41 2
46 5 63 40 19 38 26 41 97 37 35 -1 35 -1 12 15 -12 9 -28 13 -35 9 -6 -4 -9
-4 -5 1 5 5 -1 14 -12 22 -24 17 -27 80 -5 109 20 26 19 34 -5 34 -30 0 -24
16 10 30 17 7 30 16 30 20 0 10 47 30 70 30 11 0 29 -9 40 -20 43 -43 120 -31
128 20 5 28 -12 46 -74 81 -40 23 -57 41 -80 84 l-28 55 18 35 c19 34 19 35 0
56 -10 12 -42 33 -71 46 -29 14 -57 31 -64 39 -6 7 -11 44 -11 81 -1 65 0 67
39 102 22 20 45 49 52 66 11 27 10 31 -13 48 -24 17 -26 25 -25 75 2 67 20
102 53 102 13 0 29 7 36 15 10 12 17 12 48 0 21 -8 65 -21 100 -31 50 -13 62
-21 62 -37 0 -19 1 -19 18 -4 14 13 21 14 30 5 24 -24 13 -54 -34 -93 -38 -32
-45 -43 -42 -69 2 -24 8 -32 27 -34 13 -2 33 1 45 6 12 6 66 16 121 23 55 6
111 18 125 25 14 7 21 14 15 14 -58 7 -71 15 -105 61 -29 41 -41 101 -21 113
5 3 11 17 13 31 4 18 -1 30 -16 40 -23 17 -82 20 -91 6 -6 -10 -39 -6 -81 9
-22 9 -27 7 -31 -9 -5 -20 -31 -18 -45 2 -3 6 -17 11 -30 13 -262 27 -260 26
-271 147 -4 41 -1 52 24 84 33 40 38 86 13 121 -8 12 -16 46 -17 75 -2 44 3
61 26 93 37 55 35 78 -14 123 -39 36 -42 41 -46 107 l-5 70 36 19 c20 11 36
20 37 20 0 0 2 19 5 42 4 31 1 48 -14 70 -11 15 -25 57 -32 92 -11 59 -10 66
6 78 16 11 16 17 6 33 -6 11 -12 27 -12 35 0 12 -7 11 -34 -7 -19 -13 -33 -25
-31 -28 1 -3 -1 -15 -6 -28 -6 -15 -15 -22 -28 -20 -11 2 -31 -8 -45 -21 -14
-14 -26 -20 -26 -15 -1 5 -7 -9 -15 -31 -11 -28 -12 -48 -5 -68 10 -31 33 -57
50 -57 14 0 28 -39 22 -62 -5 -22 -21 -23 -83 -1 -46 17 -52 17 -120 -1 -60
-15 -73 -16 -80 -5 -5 8 -6 21 -3 29 9 21 14 119 7 136 -3 8 -16 14 -28 14
-31 0 -37 36 -12 72 17 25 18 40 10 175 -4 82 -7 157 -6 168 8 82 9 173 1 245
-5 47 -9 94 -10 105 -1 11 1 33 5 48 7 25 4 29 -23 38 -16 6 -27 15 -24 20 3
5 10 7 15 4 5 -3 6 0 3 8 -3 8 5 24 17 35 14 14 20 29 17 45 -4 19 2 28 23 41
15 9 36 16 46 16 31 0 33 9 11 51 -16 31 -22 70 -29 177 -10 162 -19 232 -29
232 -4 0 -6 28 -5 63 2 51 -2 72 -25 117 -26 52 -75 100 -101 100 -8 0 -10
-36 -7 -127 5 -145 -16 -482 -32 -529 -6 -17 -23 -37 -37 -43 -18 -8 -23 -15
-15 -20 20 -12 53 -84 54 -118 2 -50 -16 -63 -85 -63 -67 0 -167 20 -167 33 0
4 -5 5 -12 1 -8 -5 -9 -2 -5 10 4 10 7 21 7 26 0 4 19 13 43 19 62 16 71 24
64 59 -4 20 -2 32 6 36 9 3 9 7 -2 14 -24 17 -30 92 -25 279 l6 183 -25 9
c-13 5 -40 28 -60 51 -32 37 -34 45 -25 71 5 16 14 29 20 29 6 0 7 7 4 15 -7
19 30 35 66 28 17 -3 32 2 44 15 11 11 39 25 64 32 41 11 43 13 25 26 -10 8
-27 14 -37 14 -11 0 -23 13 -32 34 -11 26 -21 35 -47 40 -47 8 -1309 196
-1320 196 -5 0 -9 -1286 -9 -3255z m1075 2146 c3 -5 22 -7 42 -4 35 6 36 6 29
-23 -14 -61 -89 -89 -154 -57 -47 23 -58 63 -18 63 14 0 26 4 26 9 0 9 20 15
57 20 6 0 14 -3 18 -8z m5115 -116 c0 -8 -4 -15 -10 -15 -5 0 -7 7 -4 15 4 8
8 15 10 15 2 0 4 -7 4 -15z m499 1 c7 -8 21 -12 32 -9 15 4 18 2 13 -11 -7
-19 -9 -19 -35 -6 -13 7 -19 7 -19 0 0 -5 -5 -10 -11 -10 -5 0 -8 4 -4 9 3 5
1 12 -5 16 -11 7 -4 25 9 25 5 0 14 -6 20 -14z m-529 -47 c0 -5 -4 -8 -9 -5
-5 3 -12 -2 -15 -11 -5 -13 -9 -14 -19 -4 -9 9 -9 14 3 21 20 13 40 12 40 -1z
m785 -88 c3 -5 1 -12 -4 -15 -5 -3 -11 1 -15 9 -6 16 9 21 19 6z m75 -11 c0
-5 -4 -10 -10 -10 -5 0 -10 5 -10 10 0 6 5 10 10 10 6 0 10 -4 10 -10z m-1269
-33 c-1 -12 -15 -9 -19 4 -3 6 1 10 8 8 6 -3 11 -8 11 -12z m-4971 -52 c26 14
29 13 34 -3 5 -15 14 -17 68 -11 35 3 68 4 73 2 22 -7 55 -179 56 -288 1 -68
17 -135 40 -174 7 -11 9 -26 4 -37 -5 -11 -7 -22 -7 -26 1 -5 -2 -8 -8 -8 -37
0 -36 -261 2 -367 24 -68 37 -95 52 -105 8 -5 7 -8 -1 -8 -7 0 -13 -7 -13 -15
0 -20 -40 -75 -54 -75 -6 0 -17 -9 -23 -20 -18 -27 -63 -49 -112 -52 -22 -2
-41 -6 -41 -10 0 -5 -6 -8 -13 -8 -19 0 -67 -24 -67 -33 0 -5 -5 -5 -10 -2 -6
4 -17 2 -24 -4 -18 -15 -176 -24 -176 -10 0 6 -6 9 -12 6 -20 -7 -50 13 -44
29 3 8 -1 14 -9 14 -18 0 -20 20 -2 21 9 0 9 2 -1 6 -18 7 -73 -54 -101 -114
-26 -57 -53 -71 -95 -51 -27 12 -36 51 -15 64 18 11 -61 84 -92 84 -38 0 -49
19 -47 85 1 49 -2 61 -21 76 -19 16 -20 19 -6 19 14 0 15 3 5 14 -15 19 -17
121 -2 139 7 8 9 17 6 20 -12 11 26 57 47 57 11 0 17 5 14 10 -4 6 -11 8 -16
5 -12 -8 -11 1 2 49 8 31 8 41 -3 47 -11 7 -10 11 2 20 11 8 12 12 3 16 -7 2
-13 16 -13 29 0 13 -4 24 -10 24 -16 0 -12 27 5 34 12 4 13 11 5 32 -6 15 -8
29 -6 32 3 3 8 -3 12 -12 10 -26 25 -19 18 9 -5 22 -4 24 12 18 16 -6 17 -4 7
8 -18 22 -5 89 16 89 9 0 21 4 27 10 6 6 21 6 42 -2 28 -11 34 -10 57 12 14
13 25 31 25 41 0 9 12 26 27 37 24 17 25 22 14 36 -12 14 -12 16 3 10 11 -4
22 0 30 11 7 10 18 15 24 11 7 -4 12 -2 12 3 0 11 72 -18 78 -31 2 -5 50 -8
107 -8 l103 0 11 28 c16 38 25 82 22 112 -1 14 -3 35 -4 47 -1 18 -4 20 -20
11 -11 -5 -36 -8 -57 -6 -30 3 -36 1 -28 -9 8 -10 1 -12 -34 -10 -24 2 -53 9
-65 15 -27 15 -36 15 -28 2 9 -14 -8 -41 -20 -32 -6 4 -15 19 -22 33 -9 22 -8
27 8 37 21 13 43 16 36 5 -3 -5 7 -9 21 -10 15 -1 38 -3 52 -5 16 -2 25 2 26
12 0 8 2 18 2 22 1 4 20 1 43 -7 35 -13 44 -13 69 0z m-333 -95 c8 0 11 -5 7
-12 -5 -8 -2 -9 9 -5 10 3 17 5 17 3 0 -3 3 -11 6 -20 9 -24 -20 -20 -51 7
-14 12 -27 33 -30 47 l-4 25 16 -22 c8 -13 22 -23 30 -23z m4737 -28 c2 -4 -4
-9 -15 -9 -10 -1 -19 2 -19 8 0 11 27 12 34 1z m2016 -52 c0 -5 -5 -10 -11
-10 -5 0 -7 5 -4 10 3 6 8 10 11 10 2 0 4 -4 4 -10z m-1900 -55 c0 -5 -4 -4
-9 4 -5 7 -14 10 -20 7 -6 -4 -11 -3 -11 3 0 5 6 11 13 14 12 4 27 -10 27 -28z
m-3887 -10 c-1 -10 7 -40 17 -66 10 -26 16 -50 13 -53 -4 -3 -1 -6 5 -6 7 0
12 -6 12 -14 0 -7 6 -36 14 -62 35 -121 36 -145 10 -209 -14 -33 -30 -76 -35
-95 -6 -19 -17 -49 -25 -67 -8 -17 -14 -36 -14 -42 0 -6 -4 -11 -10 -11 -5 0
-10 -9 -10 -20 0 -11 -3 -20 -7 -19 -28 2 -47 20 -60 55 -31 83 -35 121 -30
257 5 114 9 142 25 165 16 22 30 69 37 127 1 6 7 24 15 40 7 17 12 34 11 38
-1 5 6 7 16 5 11 -2 17 -12 16 -23z m3687 -195 c0 -5 -5 -10 -11 -10 -5 0 -7
5 -4 10 3 6 8 10 11 10 2 0 4 -4 4 -10z m-55 -59 c-8 -14 -25 -14 -25 0 0 5 5
7 10 4 6 -3 10 -1 10 6 0 7 3 10 6 6 3 -3 3 -10 -1 -16z m1735 -131 c0 -5 -2
-10 -4 -10 -3 0 -8 5 -11 10 -3 6 -1 10 4 10 6 0 11 -4 11 -10z m114 -69 c3
-5 -1 -14 -9 -21 -13 -10 -15 -9 -15 9 0 21 14 28 24 12z m379 -31 c3 -11 1
-23 -4 -26 -5 -3 -9 6 -9 20 0 31 6 34 13 6z m-116 -52 c-3 -7 -5 -2 -5 12 0
14 2 19 5 13 2 -7 2 -19 0 -25z m333 -48 c0 -5 -4 -10 -10 -10 -5 0 -10 5 -10
10 0 6 5 10 10 10 6 0 10 -4 10 -10z m-2385 -10 c-3 -5 -12 -10 -18 -10 -7 0
-6 4 3 10 19 12 23 12 15 0z m30 -9 c3 -5 1 -12 -5 -16 -5 -3 -10 1 -10 9 0
18 6 21 15 7z m-45 -43 c0 -6 -6 -5 -15 2 -8 7 -15 14 -15 16 0 2 7 1 15 -2 8
-4 15 -11 15 -16z m-125 -28 c3 -5 1 -10 -4 -10 -6 0 -11 5 -11 10 0 6 2 10 4
10 3 0 8 -4 11 -10z m95 -6 c0 -8 5 -12 10 -9 6 3 10 0 10 -8 0 -12 -4 -13
-24 -4 -13 6 -21 17 -19 24 7 18 23 16 23 -3z m1245 -14 c3 -5 1 -10 -4 -10
-6 0 -11 5 -11 10 0 6 2 10 4 10 3 0 8 -4 11 -10z m-330 -50 c3 -11 16 -25 27
-31 17 -9 18 -13 7 -20 -10 -6 -11 -9 -1 -9 17 0 15 -16 -5 -39 -22 -27 -33
-18 -33 29 0 21 -4 50 -10 64 -5 15 -6 26 0 26 5 0 12 -9 15 -20z m-915 -8 c0
-5 -7 -9 -15 -9 -8 0 -12 4 -9 9 3 4 9 8 15 8 5 0 9 -4 9 -8z m17 -14 c-3 -8
-6 -5 -6 6 -1 11 2 17 5 13 3 -3 4 -12 1 -19z m-97 3 c0 -5 -7 -11 -14 -14
-10 -4 -13 -1 -9 9 6 15 23 19 23 5z m60 -46 c0 -8 -7 -15 -15 -15 -16 0 -20
12 -8 23 11 12 23 8 23 -8z m-3767 -84 c7 1 29 -1 50 -6 39 -8 39 -8 19 -27
-17 -17 -27 -19 -71 -13 l-51 7 0 53 c0 66 21 80 33 23 5 -21 14 -38 20 -37z
m-63 -21 c0 -3 -9 -6 -20 -7 -11 -1 -18 2 -15 8 4 5 2 9 -4 9 -5 0 -21 11 -35
23 -19 18 -23 26 -14 35 9 9 21 3 50 -25 21 -20 38 -40 38 -43z m3802 55 c3
-14 1 -28 -3 -31 -5 -3 -9 -1 -9 5 0 6 -7 8 -15 5 -18 -7 -19 0 -3 26 17 27
25 25 30 -5z m-12 -84 c0 -11 -3 -11 -17 0 -14 12 -16 12 -8 0 5 -10 4 -12 -3
-7 -7 4 -12 16 -12 27 0 17 3 18 20 7 11 -7 20 -19 20 -27z m-70 -22 c-6 -10
-13 -19 -16 -19 -2 0 0 8 5 19 6 10 7 22 3 26 -4 5 -1 5 6 1 9 -5 9 -12 2 -27z
m-3556 -9 c8 -16 10 -30 5 -30 -5 0 -4 -11 1 -26 9 -22 8 -25 -5 -20 -8 3 -15
0 -15 -6 0 -9 -3 -9 -12 0 -7 7 -13 30 -13 52 -1 41 9 54 19 23 3 -10 4 -6 2
10 -4 35 -1 34 18 -3z m3684 -8 c-2 -11 4 -27 12 -37 14 -17 14 -17 -6 -7 -12
6 -24 8 -28 5 -3 -4 -1 8 5 25 12 35 22 43 17 14z m-33 -22 c-3 -5 -14 -10
-23 -10 -15 0 -15 2 -2 10 20 13 33 13 25 0z m-10 -40 c3 -5 -3 -10 -15 -10
-12 0 -18 5 -15 10 3 6 10 10 15 10 5 0 12 -4 15 -10z m2503 -61 c2 -9 -1 -8
-11 3 -10 12 -17 14 -24 7 -17 -17 -37 -1 -22 17 10 12 15 12 32 1 12 -8 23
-20 25 -28z m-2478 11 c0 -11 -4 -20 -10 -20 -5 0 -7 7 -4 15 5 11 2 13 -12 8
-12 -4 -15 -3 -10 5 12 19 36 14 36 -8z m445 -20 c3 -5 1 -10 -4 -10 -6 0 -11
5 -11 10 0 6 2 10 4 10 3 0 8 -4 11 -10z m1995 -20 c0 -5 -5 -10 -11 -10 -5 0
-7 5 -4 10 3 6 8 10 11 10 2 0 4 -4 4 -10z m22 -12 c-7 -7 -12 -8 -12 -2 0 14
12 26 19 19 2 -3 -1 -11 -7 -17z m-1056 -135 c-8 -8 -46 18 -46 32 0 24 24 22
38 -3 7 -14 10 -27 8 -29z m-1451 27 c-3 -5 -12 -10 -18 -10 -7 0 -6 4 3 10
19 12 23 12 15 0z m183 -10 c-7 -10 -14 -18 -15 -16 -6 6 9 36 18 36 5 0 4 -9
-3 -20z m-3258 4 c0 -3 -10 -19 -21 -36 -18 -25 -19 -32 -8 -39 8 -5 9 -9 4
-9 -7 0 -10 -25 -10 -61 0 -33 -3 -63 -7 -65 -4 -3 -8 0 -8 5 0 19 -22 12 -27
-8 -3 -10 -16 -21 -30 -24 -21 -4 -27 1 -39 29 -17 40 -18 54 -3 54 5 0 7 5 4
11 -5 6 -12 4 -20 -8 -18 -24 -30 -11 -15 17 10 18 8 24 -7 35 -17 13 -17 14
-1 20 22 9 13 27 -10 23 -10 -2 -18 5 -20 17 -4 16 -2 17 10 8 16 -13 79 -7
113 10 17 9 63 23 88 26 4 1 7 -2 7 -5z m3420 -19 c14 -19 14 -19 -2 -6 -10 7
-18 18 -18 24 0 6 1 8 3 6 1 -2 9 -13 17 -24z m-280 5 c0 -5 -4 -10 -10 -10
-5 0 -10 5 -10 10 0 6 5 10 10 10 6 0 10 -4 10 -10z m380 0 c0 -5 -4 -10 -10
-10 -5 0 -10 5 -10 10 0 6 5 10 10 10 6 0 10 -4 10 -10z m-320 -4 c0 -2 -7 -9
-15 -16 -13 -11 -14 -10 -9 4 5 14 24 23 24 12z m1280 -6 c13 -8 13 -10 -2
-10 -9 0 -20 5 -23 10 -8 13 5 13 25 0z m-1304 -42 c5 -7 2 -9 -8 -5 -21 7
-38 -11 -38 -42 -1 -23 -2 -24 -11 -8 -20 35 36 89 57 55z m1634 -26 c0 -7 -4
-10 -10 -7 -5 3 -10 16 -10 28 0 18 2 19 10 7 5 -8 10 -21 10 -28z m710 22 c0
-8 -4 -12 -10 -9 -5 3 -10 1 -10 -6 0 -7 -2 -10 -5 -7 -8 7 5 38 16 38 5 0 9
-7 9 -16z m-1959 -21 c-12 -20 -14 -14 -5 12 4 9 9 14 11 11 3 -2 0 -13 -6
-23z m-21 -3 c0 -11 -4 -20 -9 -20 -5 0 -7 9 -4 20 3 11 7 20 9 20 2 0 4 -9 4
-20z m-326 -6 c9 -8 16 -21 16 -27 0 -7 -7 -4 -14 6 -7 9 -18 17 -24 17 -6 0
-14 5 -17 10 -10 16 22 11 39 -6z m182 -13 c-10 -11 -28 -21 -39 -23 -13 -2
-24 -13 -28 -28 -6 -22 -7 -22 -8 -4 -1 23 33 59 47 50 5 -3 15 1 22 9 7 8 15
15 18 15 3 0 -3 -9 -12 -19z m-351 -11 c-3 -5 -11 -10 -16 -10 -6 0 -7 5 -4
10 3 6 11 10 16 10 6 0 7 -4 4 -10z m465 7 c0 -2 -9 -12 -19 -21 -19 -17 -19
-17 -14 3 3 12 12 21 19 21 8 0 14 -2 14 -3z m-452 -53 c0 -35 0 -35 -12 -13
-8 16 -9 28 -3 37 14 18 15 16 15 -24z m112 26 c0 -5 -7 -7 -15 -4 -8 4 -15 8
-15 10 0 2 7 4 15 4 8 0 15 -4 15 -10z m60 -40 c0 -5 -5 -10 -11 -10 -5 0 -7
5 -4 10 3 6 8 10 11 10 2 0 4 -4 4 -10z m-53 -22 c-3 -8 -6 -5 -6 6 -1 11 2
17 5 13 3 -3 4 -12 1 -19z m2324 -21 c-8 -8 -11 -7 -11 4 0 20 13 34 18 19 3
-7 -1 -17 -7 -23z m-2161 13 c-19 -13 -30 -13 -30 0 0 6 10 10 23 10 18 0 19
-2 7 -10z m100 0 c0 -5 -5 -10 -11 -10 -5 0 -7 5 -4 10 3 6 8 10 11 10 2 0 4
-4 4 -10z m-275 -19 c3 -5 -4 -13 -16 -16 -23 -8 -34 -1 -24 14 8 13 32 14 40
2z m128 -14 c-3 -13 -11 -24 -18 -24 -10 0 -10 5 2 24 8 13 16 23 18 23 1 0 0
-10 -2 -23z m-61 -17 c3 -16 1 -30 -4 -30 -4 0 -8 3 -8 8 0 4 -3 17 -6 30 -4
12 -2 22 4 22 5 0 12 -13 14 -30z m162 14 c18 -17 21 -34 7 -34 -5 0 -13 9
-16 20 -4 11 -11 17 -17 14 -7 -4 -8 -2 -4 4 9 15 12 15 30 -4z m2126 -4 c0
-5 -5 -10 -11 -10 -5 0 -7 5 -4 10 3 6 8 10 11 10 2 0 4 -4 4 -10z m-5595 -10
c-27 -12 -35 -12 -35 0 0 6 12 10 28 9 24 0 25 -1 7 -9z m3405 -4 c0 -3 -4 -8
-10 -11 -5 -3 -10 -1 -10 4 0 6 5 11 10 11 6 0 10 -2 10 -4z m-180 -21 c0 -8
-4 -15 -10 -15 -5 0 -10 7 -10 15 0 8 5 15 10 15 6 0 10 -7 10 -15z m46 -32
c-4 -4 -11 -1 -16 7 -16 25 -11 35 7 17 9 -9 13 -20 9 -24z m214 17 c0 -5 -5
-10 -11 -10 -5 0 -7 5 -4 10 3 6 8 10 11 10 2 0 4 -4 4 -10z m120 -20 c0 -5
-2 -10 -4 -10 -3 0 -8 5 -11 10 -3 6 -1 10 4 10 6 0 11 -4 11 -10z m-403 -8
c10 -6 10 -12 -1 -28 -11 -15 -17 -16 -27 -7 -6 6 -9 19 -6 27 7 18 16 20 34
8z m2273 -19 c0 -19 -13 -9 -16 12 -1 8 2 13 7 9 5 -3 9 -12 9 -21z m124 -6
c9 -15 7 -21 -8 -33 -11 -8 -25 -14 -30 -14 -6 0 -4 5 4 10 12 7 8 12 -17 21
-34 11 -42 24 -20 33 23 10 60 1 71 -17z m-2296 1 c-3 -7 -13 -15 -24 -17 -16
-3 -17 -1 -5 13 16 19 34 21 29 4z m116 -4 c3 -8 2 -12 -4 -9 -6 3 -10 10 -10
16 0 14 7 11 14 -7z m166 -8 c0 -3 -4 -8 -10 -11 -5 -3 -10 -1 -10 4 0 6 5 11
10 11 6 0 10 -2 10 -4z m-620 -21 c-33 -19 -49 -19 -24 0 10 8 26 14 34 14 9
0 4 -6 -10 -14z m2514 -27 c-9 -14 -24 2 -24 25 1 21 1 21 15 3 8 -10 12 -23
9 -28z m-1919 22 c3 -5 -1 -10 -10 -10 -9 0 -13 5 -10 10 3 6 8 10 10 10 2 0
7 -4 10 -10z m-271 -45 c4 -16 1 -34 -9 -48 -8 -12 -15 -16 -15 -8 0 11 -3 11
-17 0 -17 -13 -17 -13 0 7 9 11 14 24 10 29 -5 4 -3 5 4 1 21 -11 23 10 2 27
-25 22 -26 41 0 28 10 -6 22 -22 25 -36z m-74 21 c0 -8 -5 -18 -10 -21 -8 -5
-8 -11 0 -20 6 -8 7 -21 2 -36 -9 -23 -9 -23 -20 -3 -6 12 -8 30 -5 42 3 13 1
22 -6 22 -6 0 -11 7 -11 15 0 9 9 15 25 15 15 0 25 -6 25 -14z m2310 -11 c11
-13 10 -14 -4 -9 -9 3 -16 10 -16 15 0 13 6 11 20 -6z m-1980 -26 c0 -4 -7 -6
-15 -3 -8 4 -15 10 -15 15 0 4 7 6 15 3 8 -4 15 -10 15 -15z m65 11 c-3 -5
-12 -10 -18 -10 -7 0 -6 4 3 10 19 12 23 12 15 0z m-207 -25 c-3 -3 -9 2 -12
12 -6 14 -5 15 5 6 7 -7 10 -15 7 -18z m1872 -5 c0 -5 -4 -10 -10 -10 -5 0
-10 5 -10 10 0 6 5 10 10 10 6 0 10 -4 10 -10z m-1951 -50 c-13 -35 -34 -39
-49 -9 -11 19 -10 20 9 10 17 -9 22 -8 31 9 16 30 20 24 9 -10z m-186 -2 c-13
-16 -13 -48 0 -48 5 0 4 -7 -3 -15 -6 -8 -9 -19 -5 -25 4 -6 3 -9 -2 -8 -4 1
-19 -4 -32 -11 -18 -10 -33 -10 -65 -2 -24 6 -53 8 -66 6 -31 -6 -67 4 -74 20
-5 14 39 48 61 48 7 0 13 4 13 8 0 5 7 6 15 3 8 -4 15 -1 15 5 0 7 10 9 28 5
21 -4 24 -3 12 5 -13 9 -13 11 2 11 9 0 29 -5 43 -12 21 -10 29 -9 43 5 19 20
29 23 15 5z m95 -20 c-4 -27 -28 -36 -28 -10 0 20 8 32 22 32 5 0 8 -10 6 -22z
m136 7 c-6 -16 -24 -21 -24 -7 0 11 11 22 21 22 5 0 6 -7 3 -15z m151 -33 c-8
-8 -25 10 -25 26 0 13 2 13 14 -4 8 -10 13 -21 11 -22z m1788 21 c-7 -2 -19
-2 -25 0 -7 3 -2 5 12 5 14 0 19 -2 13 -5z m-3355 -65 c-3 -7 -12 -14 -22 -14
-13 -2 -13 -1 -1 3 8 2 13 9 10 14 -4 5 -1 9 5 9 7 0 10 -6 8 -12z m1526 -12
c-3 -9 -10 -13 -16 -10 -5 3 -4 12 3 20 15 18 22 13 13 -10z m51 14 c-3 -5
-11 -10 -16 -10 -6 0 -7 5 -4 10 3 6 11 10 16 10 6 0 7 -4 4 -10z m-57 -74
c-5 -32 -28 -32 -29 1 0 23 -2 25 -8 9 -5 -13 -10 -16 -15 -8 -4 6 -2 21 4 33
11 20 12 20 31 3 11 -10 19 -27 17 -38z m1872 39 c-7 -9 -15 -13 -17 -11 -7 7
7 26 19 26 6 0 6 -6 -2 -15z m-1820 -35 c0 -5 -6 -10 -14 -10 -8 0 -18 5 -21
10 -3 6 3 10 14 10 12 0 21 -4 21 -10z m-206 -15 c3 -8 1 -15 -4 -15 -6 0 -10
6 -10 13 0 9 -3 8 -9 -2 -5 -8 -11 -9 -15 -3 -3 6 0 13 6 15 21 9 26 8 32 -8z
m-39 -27 c14 -12 25 -29 25 -37 -1 -13 -3 -12 -15 3 -14 19 -15 18 -25 -5 -10
-22 -10 -21 -6 8 3 18 1 35 -4 38 -6 3 -10 1 -10 -6 0 -7 -3 -10 -6 -6 -6 6 3
27 12 27 2 0 15 -10 29 -22z m60 -38 c-3 -5 -10 -10 -16 -10 -5 0 -9 5 -9 10
0 6 7 10 16 10 8 0 12 -4 9 -10z m115 0 c0 -5 -7 -10 -15 -10 -8 0 -15 5 -15
10 0 6 7 10 15 10 8 0 15 -4 15 -10z m-207 -47 c-7 -2 -19 -2 -25 0 -7 3 -2 5
12 5 14 0 19 -2 13 -5z m-366 -35 c-3 -7 -5 -2 -5 12 0 14 2 19 5 13 2 -7 2
-19 0 -25z m468 -18 c3 -5 2 -10 -4 -10 -5 0 -13 5 -16 10 -3 6 -2 10 4 10 5
0 13 -4 16 -10z m1589 2 c8 -13 -55 -70 -86 -77 -33 -8 -48 16 -27 41 25 30
102 54 113 36z m-4607 -39 c7 -19 -32 -99 -53 -107 -25 -9 -44 23 -44 75 l0
49 45 0 c33 0 47 -5 52 -17z m2587 -37 c4 -19 13 -39 20 -45 19 -16 28 -69 14
-90 -9 -15 -6 -34 12 -92 13 -41 29 -85 36 -99 7 -14 25 -59 40 -100 34 -93
51 -120 75 -120 11 0 19 -7 19 -15 0 -23 71 -62 127 -70 50 -6 52 -8 50 -36
l-2 -30 -97 3 c-86 2 -98 5 -98 20 0 11 7 18 19 18 14 0 19 7 17 26 -1 23 -4
25 -36 21 -28 -3 -43 3 -75 27 -22 17 -42 32 -44 33 -2 2 -1 6 2 9 4 4 18 -1
31 -10 14 -9 28 -16 31 -16 15 0 0 52 -39 134 -41 85 -77 184 -91 249 -5 23
-8 27 -20 17 -20 -17 -32 -6 -40 36 -5 29 -2 43 14 65 18 24 19 35 12 74 -7
36 -6 43 4 35 7 -6 16 -26 19 -44z m2840 -42 c4 -11 2 -15 -8 -11 -8 3 -18 -5
-25 -19 -6 -14 -16 -22 -22 -18 -7 4 0 17 17 35 33 34 30 33 38 13z m-2720 -7
c10 -7 20 -29 22 -48 2 -19 6 -40 9 -46 10 -29 -26 -10 -50 24 -25 37 -31 63
-18 76 9 10 17 9 37 -6z m1708 -113 c-10 -18 -42 -29 -42 -14 0 4 10 20 22 36
18 23 23 25 26 11 2 -9 -1 -24 -6 -33z m-106 -66 c-6 -28 -5 -30 7 -15 12 17
14 17 36 -7 22 -23 22 -25 6 -49 -17 -26 -45 -27 -45 -1 0 8 -6 14 -12 15 -7
0 -4 4 7 9 19 8 18 9 -4 9 -19 1 -22 5 -17 24 3 12 6 28 6 35 0 6 5 12 11 12
8 0 9 -11 5 -32z m-2534 9 c21 -7 41 -16 44 -20 4 -4 16 -7 26 -7 17 0 18 -2
5 -14 -27 -28 -82 -56 -108 -56 -25 0 -66 35 -64 55 2 23 27 55 43 55 9 0 34
-6 54 -13z m3993 -23 c-30 -25 -99 -65 -80 -46 17 16 98 72 104 72 3 -1 -7
-12 -24 -26z m-95 -62 c0 -5 -15 -19 -32 -32 l-33 -23 29 31 c31 34 36 37 36
24z m-1616 -30 c3 -5 -1 -9 -9 -9 -8 0 -12 4 -9 9 3 4 7 8 9 8 2 0 6 -4 9 -8z
m-6054 -32 c0 -31 18 -32 32 -3 16 34 47 42 65 17 17 -23 17 -64 0 -64 -7 0
-13 11 -12 27 0 38 -24 41 -38 4 -7 -20 -17 -29 -25 -26 -8 3 -20 5 -28 5 -9
0 -14 12 -14 36 0 21 4 33 10 29 6 -3 10 -15 10 -25z m7600 6 c0 -2 -8 -10
-17 -17 -16 -13 -17 -12 -4 4 13 16 21 21 21 13z m-655 -46 c22 -11 48 -19 57
-20 10 0 25 -11 34 -25 20 -30 37 -32 61 -5 16 16 22 17 42 7 36 -18 38 -60 5
-102 -16 -21 -24 -41 -20 -51 4 -10 -5 -39 -20 -68 -15 -28 -30 -64 -33 -81
-6 -24 -12 -30 -36 -33 -17 -1 -37 2 -45 8 -13 8 -11 16 12 58 19 34 27 62 26
88 -1 22 1 46 6 55 5 13 -4 18 -48 29 -31 7 -72 10 -96 6 -71 -11 -168 4 -201
31 -33 28 -38 66 -13 101 14 20 23 22 122 22 85 -1 115 -5 147 -20z m-5526 -4
c9 -10 7 -16 -5 -27 -18 -15 -47 -2 -52 25 -4 20 40 22 57 2z m3697 -18 c-3
-18 -12 -55 -20 -83 -12 -41 -15 -45 -15 -20 -1 26 10 79 24 123 9 26 17 11
11 -20z m2413 5 c-13 -16 -36 -41 -51 -58 -15 -16 -37 -41 -48 -55 l-21 -25
18 33 c10 19 40 56 67 83 53 53 75 66 35 22z m-7431 -25 c16 -16 15 -68 -1
-68 -7 0 -13 11 -12 27 0 32 -24 43 -32 14 -6 -24 -23 -28 -23 -6 0 8 -7 15
-16 15 -12 0 -15 -7 -11 -25 3 -16 0 -24 -7 -22 -6 2 -11 17 -11 33 0 25 4 29
27 29 15 1 30 4 34 8 11 11 39 8 52 -5z m4341 -84 c3 -4 -8 -4 -26 -1 -27 5
-32 3 -36 -16 -3 -16 -5 -13 -6 10 -1 31 0 31 30 23 18 -5 34 -12 38 -16z
m-4381 -24 c32 -20 32 -20 32 0 0 11 5 20 10 20 6 0 10 -20 10 -45 0 -25 -4
-45 -8 -45 -5 0 -18 14 -31 31 -27 37 -66 38 -65 2 0 -13 -5 -23 -13 -23 -20
0 -16 57 5 69 23 14 22 14 60 -9z m5019 -42 c-3 -7 -5 -2 -5 12 0 14 2 19 5
13 2 -7 2 -19 0 -25z m-690 -10 c-3 -7 -5 -2 -5 12 0 14 2 19 5 13 2 -7 2 -19
0 -25z m2995 -3 c-8 -30 -32 -47 -32 -23 0 15 30 61 36 56 2 -2 0 -17 -4 -33z
m-2797 -5 c3 -6 -1 -7 -9 -4 -18 7 -21 14 -7 14 6 0 13 -4 16 -10z m3461 -29
c16 -12 21 -22 14 -26 -12 -7 -50 21 -50 37 0 13 10 10 36 -11z m-7982 -12
l26 -20 0 20 c0 12 5 21 10 21 6 0 10 -20 10 -45 0 -25 -3 -45 -6 -45 -3 0
-19 14 -35 31 -33 35 -65 36 -62 1 2 -14 -3 -22 -12 -22 -10 0 -15 10 -15 28
0 53 38 67 84 31z m6309 -53 c34 -4 142 -9 240 -11 220 -4 231 -8 221 -88 -4
-29 -11 -60 -16 -69 -13 -26 -53 -32 -122 -20 -120 22 -270 34 -349 30 -47 -3
-89 0 -103 6 -21 10 -24 18 -24 73 0 62 0 63 35 77 26 11 35 21 35 39 0 39 15
42 18 4 l3 -35 62 -6z m-1673 39 c23 -9 28 -14 15 -14 -11 0 -31 6 -45 14 -31
18 -16 18 30 0z m3223 -19 c4 -9 -7 -17 -33 -25 -21 -6 -81 -42 -135 -80 -54
-39 -103 -67 -111 -64 -8 3 -14 0 -14 -6 0 -6 -10 -11 -22 -11 -20 0 -18 4 17
40 22 23 65 55 95 72 30 16 65 39 77 50 15 14 31 19 52 16 19 -3 32 0 35 9 7
17 32 17 39 -1z m32 4 c3 -5 1 -10 -4 -10 -6 0 -11 5 -11 10 0 6 2 10 4 10 3
0 8 -4 11 -10z m185 0 c0 -5 -6 -10 -14 -10 -8 0 -18 5 -21 10 -3 6 3 10 14
10 12 0 21 -4 21 -10z m-90 -15 c0 -2 -14 -12 -31 -21 -22 -11 -30 -12 -27 -3
2 7 12 13 22 15 10 1 20 5 24 8 7 7 12 8 12 1z m-5490 -29 c0 -22 -16 -28 -29
-12 -9 11 -9 15 1 19 22 9 28 8 28 -7z m4768 2 c19 -19 14 -30 -8 -18 -11 6
-20 15 -20 20 0 14 14 12 28 -2z m642 -13 c-6 -8 -36 -30 -66 -50 -68 -45
-224 -174 -224 -184 0 -14 -52 -61 -67 -61 -15 0 31 60 100 131 71 73 306 223
257 164z m-7869 -5 c5 0 9 -7 9 -15 0 -8 -7 -15 -15 -15 -9 0 -15 -9 -15 -25
0 -31 -11 -31 -61 -3 -54 30 -52 56 4 61 23 2 48 2 55 0 8 -2 18 -3 23 -3z
m403 4 c17 -6 22 -34 7 -34 -5 0 -11 -9 -14 -20 -7 -28 -53 -27 -68 2 -10 18
-8 24 11 40 23 19 38 22 64 12z m5357 -17 c-10 -9 -11 -8 -5 6 3 10 9 15 12
12 3 -3 0 -11 -7 -18z m-903 -2 c30 -10 8 -25 -38 -25 -31 0 -50 -4 -50 -12 0
-6 -9 -3 -20 7 -20 19 -28 41 -10 30 6 -3 10 -1 10 5 0 10 69 7 108 -5z m992
2 c0 -20 -42 -55 -47 -40 -2 7 -12 9 -20 6 -13 -5 -15 -2 -10 11 4 10 7 19 7
20 0 2 11 1 25 -2 15 -2 25 0 25 7 0 6 5 11 10 11 6 0 10 -6 10 -13z m2150
-47 c0 -11 -2 -20 -4 -20 -2 0 -11 -3 -20 -6 -19 -7 -22 16 -4 34 18 18 28 15
28 -8z m-8019 -69 c29 -30 37 -51 19 -51 -5 0 -14 10 -21 21 l-11 21 -12 -23
c-13 -28 -41 -36 -61 -19 -19 16 -19 45 1 64 23 24 52 19 85 -13z m7880 -15
c-34 -17 -84 -53 -111 -80 -45 -45 -70 -53 -70 -22 0 20 72 81 120 101 25 11
48 24 51 29 4 5 14 6 23 3 8 -3 18 -2 21 4 4 5 11 6 17 3 6 -4 -17 -21 -51
-38z m-2998 17 c13 -8 7 -43 -7 -43 -33 0 -66 20 -66 41 0 18 4 20 33 14 17
-4 35 -9 40 -12z m2651 -36 c3 4 6 2 6 -4 0 -5 -19 -28 -43 -50 -35 -33 -49
-40 -70 -36 -15 3 -30 9 -32 13 -7 12 53 53 65 45 5 -3 10 2 10 13 0 27 9 32
35 22 13 -5 26 -6 29 -3z m-1210 -51 c69 -10 137 -14 163 -10 44 6 116 -2 277
-32 80 -15 111 -9 81 16 -24 20 -19 43 8 36 13 -3 49 -8 81 -12 60 -7 96 -29
96 -59 0 -8 11 -25 25 -39 14 -14 25 -34 25 -46 0 -28 -29 -58 -62 -62 -27 -3
-27 -3 -11 -36 13 -27 14 -39 4 -72 -10 -33 -20 -43 -60 -63 -37 -18 -55 -21
-77 -14 -16 5 -66 10 -111 12 -46 1 -89 7 -95 13 -12 9 -132 21 -274 27 -109
5 -190 57 -164 106 10 17 18 19 53 14 23 -3 123 -10 223 -15 170 -10 183 -10
226 9 28 12 69 20 103 20 70 0 89 13 81 59 -5 34 -29 61 -54 62 -8 0 -34 -17
-58 -39 -54 -48 -85 -49 -98 -3 -5 17 -13 32 -17 32 -5 0 -12 0 -16 0 -5 0
-17 -17 -29 -37 -11 -21 -31 -40 -45 -44 -14 -3 -76 2 -139 12 -63 11 -167 20
-230 21 l-116 1 -27 35 c-46 59 -30 132 28 132 13 0 27 4 30 10 4 6 16 5 33
-4 15 -7 80 -21 146 -30z m1725 40 c-22 -20 -139 -105 -139 -101 0 7 65 65 99
87 22 15 53 26 40 14z m-8019 -56 c0 -5 -22 -10 -50 -10 -38 0 -50 -4 -50 -15
0 -20 -16 -19 -24 1 -12 30 -5 34 59 34 37 0 65 -4 65 -10z m3706 -39 c-8 -9
-16 -25 -19 -36 -5 -19 -5 -19 -12 3 -4 12 -11 22 -16 22 -13 0 -11 29 3 44
11 11 17 11 36 -2 20 -13 21 -17 8 -31z m1813 0 c129 -57 205 -74 359 -76 73
-1 136 -5 139 -9 4 -3 -6 -6 -22 -6 l-28 0 6 -67 c26 -312 28 -356 18 -385 -6
-17 -11 -43 -11 -57 0 -28 -39 -188 -64 -261 -9 -25 -21 -66 -27 -92 l-11 -46
-95 -7 c-51 -4 -97 -5 -100 -1 -3 3 -1 31 6 61 10 43 10 68 1 112 -7 32 -16
63 -21 69 -5 6 -6 13 -3 16 5 5 -22 73 -47 120 -5 10 -9 34 -9 53 0 27 -4 35
-17 35 -11 0 -14 3 -7 8 5 4 11 39 11 77 2 101 7 136 26 171 9 18 19 50 23 73
4 22 13 46 20 52 8 6 14 18 14 25 0 18 -111 69 -170 79 -51 9 -107 51 -102 78
5 24 13 22 111 -22z m-1764 -4 c16 -13 15 -14 -13 -9 -18 2 -29 8 -26 13 7 12
17 11 39 -4z m3915 -15 c-5 -9 -18 -28 -29 -42 -18 -23 -21 -24 -36 -9 -15 15
-13 19 20 48 37 32 63 34 45 3z m-2795 -14 c5 -4 -2 -8 -16 -8 -24 0 -49 16
-49 32 0 8 48 -10 65 -24z m2985 7 c-7 -9 -27 -25 -44 -36 -25 -17 -24 -14 8
15 41 38 58 47 36 21z m-7863 -7 c-2 -9 -20 -12 -50 -10 -37 2 -47 -1 -47 -13
0 -20 -16 -19 -24 1 -12 30 -5 34 60 34 48 0 65 -3 61 -12z m4209 -24 c11 -9
11 -17 2 -42 -18 -48 -28 -39 -27 26 0 31 3 50 6 42 3 -8 11 -20 19 -26z
m4069 -34 c-4 -6 -11 -7 -17 -4 -6 4 -9 1 -6 -7 3 -8 19 -14 38 -15 19 0 35
-5 37 -11 6 -16 -90 -43 -146 -42 l-46 1 48 21 c36 16 47 26 47 44 0 18 6 23
26 23 14 0 23 -4 19 -10z m175 -6 c0 -2 -7 -4 -15 -4 -8 0 -15 4 -15 10 0 5 7
7 15 4 8 -4 15 -8 15 -10z m-8450 -9 c0 -12 -10 -14 -50 -10 -40 4 -50 2 -50
-10 0 -20 -16 -19 -24 1 -12 30 -5 34 59 34 51 0 65 -3 65 -15z m3741 -33 c-7
-2 -18 1 -23 6 -8 8 -4 9 13 5 13 -4 18 -8 10 -11z m-3820 -14 c1 -7 1 -21 0
-30 -1 -10 3 -18 9 -18 7 0 10 6 7 14 -10 26 16 35 38 13 17 -17 17 -19 3 -14
-12 4 -18 1 -18 -8 0 -8 8 -15 18 -16 12 0 10 -3 -7 -10 -17 -7 -27 -6 -32 2
-4 6 -12 8 -18 5 -6 -4 -18 -1 -26 8 -11 11 -12 16 -2 20 9 5 9 7 0 12 -7 3
-13 10 -13 15 0 6 5 7 10 4 6 -3 10 -1 10 4 0 15 20 14 21 -1z m6258 -142 c1
-49 -1 -87 -3 -85 -2 2 -6 40 -9 85 -3 44 -7 84 -8 90 -1 5 0 18 1 29 5 47 18
-34 19 -119z m3288 76 c1 -34 -1 -42 -7 -27 -11 25 -13 75 -2 75 4 0 8 -21 9
-48z m-317 23 c-14 -8 -21 -14 -16 -15 5 0 7 -3 3 -6 -3 -4 -13 1 -21 9 -18
18 -8 25 34 26 l25 0 -25 -14z m-710 -5 c-8 -5 -22 -9 -30 -9 -10 0 -8 3 5 9
27 12 43 12 25 0z m348 -39 c9 -6 29 -12 45 -16 25 -5 40 -35 17 -35 -5 0 -10
5 -10 10 0 6 -10 10 -22 9 -22 0 -22 -1 -3 -9 l20 -9 -20 -1 -20 -1 20 -9 c24
-10 9 -12 -34 -4 -19 4 -28 11 -24 18 4 6 -8 -1 -26 -16 -18 -16 -39 -28 -46
-28 -14 0 -75 59 -75 72 0 10 31 16 68 13 17 -2 35 1 38 6 7 12 50 12 72 0z
m35 2 c-7 -2 -19 -2 -25 0 -7 3 -2 5 12 5 14 0 19 -2 13 -5z m-8783 -83 c0 -6
-38 -10 -95 -10 -57 0 -95 4 -95 10 0 6 38 10 95 10 57 0 95 -4 95 -10z m6217
-29 c-1 -15 -4 -17 -14 -9 -17 14 -16 28 1 28 8 0 14 -9 13 -19z m63 -26 c0
-38 -3 -43 -17 -38 -11 4 -12 8 -5 11 7 2 12 19 12 38 0 19 2 34 5 34 3 0 5
-20 5 -45z m-240 25 c0 -5 -7 -7 -15 -4 -8 4 -15 8 -15 10 0 2 7 4 15 4 8 0
15 -4 15 -10z m-38 -52 c-15 -15 -27 14 -17 40 6 15 8 15 18 -6 7 -16 7 -26
-1 -34z m308 22 c0 -12 6 -20 13 -19 20 3 45 -11 62 -37 13 -21 14 -31 4 -64
-11 -36 -29 -55 -29 -30 0 5 -6 7 -14 4 -9 -3 -16 5 -21 23 -4 15 -10 22 -12
15 -3 -6 -9 -10 -14 -6 -12 7 -12 134 1 134 6 0 10 -9 10 -20z m-6369 -48
c-25 -17 -27 -30 -5 -28 9 0 19 -5 21 -11 4 -10 -15 -13 -71 -13 -62 0 -76 3
-76 16 0 9 8 14 18 13 9 -1 30 -1 46 0 l28 1 -23 19 c-13 11 -21 23 -17 27 5
4 16 0 27 -10 17 -16 20 -15 42 3 15 12 25 15 28 8 2 -6 -6 -17 -18 -25z
m4779 8 c-8 -5 -22 -10 -30 -10 -13 0 -13 1 0 10 8 5 22 10 30 10 13 0 13 -1
0 -10z m1411 -61 l-9 -34 -2 30 c-1 26 -3 27 -10 10 -7 -16 -9 -11 -9 20 0 29
3 34 8 21 7 -19 8 -18 16 5 7 23 8 23 12 3 2 -12 0 -37 -6 -55z m-1463 46 c-8
-8 -68 -25 -68 -19 0 6 41 23 59 23 8 1 12 -1 9 -4z m1345 -2 c8 -16 -14 -73
-28 -73 -11 0 -15 11 -15 40 0 33 3 40 19 40 11 0 22 -3 24 -7z m-6131 -85 c2
-17 10 -23 28 -23 18 0 26 6 28 23 4 25 22 31 22 6 0 -29 -21 -54 -45 -54 -28
0 -55 24 -55 51 0 27 18 24 22 -3z m8478 3 c0 -22 -29 -36 -43 -22 -7 7 -6 15
3 26 17 21 40 19 40 -4z m-1835 -31 c-10 -11 -22 -20 -26 -20 -5 0 -1 9 8 20
10 11 22 20 27 20 5 0 1 -9 -9 -20z m-6581 -56 c19 -18 20 -28 6 -55 -21 -39
-90 -16 -90 30 0 16 30 41 50 41 10 0 26 -7 34 -16z m8793 0 c7 -19 -18 -38
-28 -22 -9 14 0 38 12 38 5 0 12 -7 16 -16z m-337 -24 c0 -5 -9 -14 -20 -20
-22 -12 -27 -1 -8 18 14 14 28 16 28 2z m200 -50 c0 -4 -12 -12 -27 -19 -22
-10 -25 -10 -15 2 7 8 9 17 6 20 -3 3 -3 11 1 17 7 11 35 -4 35 -20z m-8720
-20 c0 -15 58 -12 63 3 2 6 8 9 12 5 17 -16 -5 -38 -39 -38 -19 0 -37 -6 -40
-12 -5 -10 -7 -10 -12 0 -3 6 -12 12 -20 12 -8 0 -14 5 -14 10 0 6 7 10 15 10
8 0 15 5 15 10 0 6 5 10 10 10 6 0 10 -4 10 -10z m4492 -22 c-4 -26 -2 -30 12
-25 14 6 15 4 5 -15 -7 -12 -22 -33 -35 -47 -13 -14 -24 -33 -24 -42 0 -11 -9
-16 -26 -16 -16 0 -23 4 -20 12 2 7 10 40 17 74 12 65 29 82 29 30 0 -16 4
-28 9 -25 5 3 9 17 9 31 0 20 17 55 26 55 2 0 0 -14 -2 -32z m4079 -5 c8 -22
7 -30 -7 -40 -26 -19 -38 -16 -51 12 -9 20 -8 28 4 40 22 23 42 18 54 -12z
m-77 -28 c3 -8 1 -15 -3 -15 -5 0 -11 7 -15 15 -3 8 -1 15 3 15 5 0 11 -7 15
-15z m-586 -46 c4 -27 39 -69 58 -69 13 0 27 -27 19 -40 -3 -4 2 -13 10 -20 8
-7 15 -19 15 -26 0 -27 -25 -13 -48 26 -14 25 -30 40 -42 40 -11 0 -24 9 -30
20 -9 16 -8 20 5 20 12 0 10 8 -10 40 -32 50 -33 67 -2 48 12 -9 24 -26 25
-39z m-7836 17 c11 -25 6 -56 -10 -56 -4 0 -8 12 -7 28 0 34 -21 36 -38 2 -23
-45 -77 -34 -77 16 0 30 17 32 22 2 5 -32 21 -32 40 2 21 37 54 40 70 6z
m7795 -38 c-3 -8 -6 -5 -6 6 -1 11 2 17 5 13 3 -3 4 -12 1 -19z m-1625 -26
c-6 -2 -12 -10 -12 -18 0 -8 -7 -14 -15 -14 -8 0 -15 8 -15 18 0 25 7 31 33
24 12 -3 16 -7 9 -10z m2226 -18 l2 -29 -14 25 c-19 31 -20 43 -3 38 6 -3 13
-18 15 -34z m-437 -21 c13 -16 12 -17 -3 -4 -17 13 -22 21 -14 21 2 0 10 -8
17 -17z m-3620 -43 c5 0 9 -9 9 -20 0 -11 5 -20 10 -20 6 0 10 5 10 10 0 6 5
10 10 10 18 0 10 -26 -15 -50 -14 -13 -25 -32 -25 -42 0 -23 29 -36 40 -17 13
19 21 7 27 -40 4 -27 2 -41 -6 -41 -6 0 -17 -16 -25 -35 -23 -53 -67 -44 -106
22 -23 39 -22 91 1 134 12 23 31 25 27 3 -5 -30 20 -26 37 6 18 35 12 54 -16
45 -16 -5 -19 -1 -19 27 0 44 23 71 28 34 2 -14 8 -26 13 -26z m-4371 -12 c0
-36 16 -28 22 12 4 22 6 23 13 7 4 -10 3 -29 -3 -43 -16 -34 -68 -34 -84 1
-13 29 3 55 33 55 15 0 19 -7 19 -32z m6170 12 c0 -5 -5 -10 -11 -10 -5 0 -7
5 -4 10 3 6 8 10 11 10 2 0 4 -4 4 -10z m-180 -20 c-11 -20 -30 -28 -30 -12 0
11 22 32 32 32 5 0 4 -9 -2 -20z m1855 0 c3 -5 1 -10 -4 -10 -6 0 -11 5 -11
10 0 6 2 10 4 10 3 0 8 -4 11 -10z m164 -59 c9 -6 10 -11 2 -15 -6 -4 -9 -12
-6 -17 4 -5 2 -9 -3 -9 -5 0 -14 11 -20 25 -12 27 -1 34 27 16z m-7980 -32
c26 -46 11 -59 -70 -59 -52 0 -70 3 -66 13 2 6 12 12 21 12 11 0 23 14 32 33
11 28 18 33 41 30 17 -2 33 -13 42 -29z m4656 -44 c-50 -18 -57 -18 -25 0 14
8 34 14 45 14 11 0 2 -6 -20 -14z m-4661 -51 c19 -18 20 -28 6 -55 -21 -39
-90 -16 -90 30 0 16 30 41 50 41 10 0 26 -7 34 -16z m4288 -101 c26 -23 24
-46 -4 -37 -25 7 -42 23 -45 42 -4 18 27 15 49 -5z m68 -8 c0 -9 -9 -15 -22
-15 -22 1 -23 1 -4 15 25 19 26 19 26 0z m-4343 -11 c10 -26 -14 -64 -41 -64
-27 0 -56 24 -56 46 0 8 -10 14 -25 14 -14 0 -25 5 -25 10 0 6 30 10 70 10 55
0 72 -4 77 -16z m-2 -93 c-3 -6 -13 -11 -21 -11 -23 0 -18 -57 6 -63 11 -3 20
-10 20 -15 0 -6 -29 -1 -67 12 -38 13 -68 29 -68 36 0 7 29 23 65 35 67 23 77
24 65 6z"/>
<path d="M193 4263 c-14 -3 -20 -9 -16 -19 3 -8 -1 -14 -8 -14 -10 -1 -9 -3 2
-10 10 -6 15 -18 12 -33 -10 -50 85 -112 114 -74 16 19 22 68 11 97 -11 33
-57 58 -69 38 -7 -10 -9 -9 -9 5 0 9 -3 16 -7 16 -5 -1 -18 -4 -30 -6z"/>
<path d="M500 3909 c0 -11 4 -18 10 -14 5 3 7 12 3 20 -7 21 -13 19 -13 -6z"/>
<path d="M201 1837 c2 -1 12 -9 22 -16 14 -12 17 -11 17 3 0 10 -8 16 -22 16
-12 0 -19 -1 -17 -3z"/>
<path d="M191 1741 c-15 -10 -8 -41 9 -41 15 0 25 29 14 40 -5 5 -15 5 -23 1z"/>
<path d="M6643 1154 c0 -17 2 -22 7 -13 5 6 6 18 3 26 -8 19 -10 16 -10 -13z"/>
<path d="M214 975 c-4 -9 -2 -21 4 -27 16 -16 47 -5 47 17 0 26 -42 34 -51 10z"/>
<path d="M4591 499 c-8 -24 -8 -36 0 -45 17 -21 26 -17 37 15 9 24 7 32 -8 46
-17 15 -18 14 -29 -16z"/>
<path d="M210 656 c0 -8 5 -18 10 -21 6 -3 10 3 10 14 0 12 -4 21 -10 21 -5 0
-10 -6 -10 -14z"/>
<path d="M217 563 c-17 -16 -5 -33 23 -33 19 0 30 5 30 14 0 20 -39 34 -53 19z"/>
<path d="M214 445 c-4 -9 -2 -21 4 -27 16 -16 47 -5 47 17 0 26 -42 34 -51 10z"/>
<path d="M212 323 c2 -12 12 -18 28 -18 16 0 26 6 28 18 3 13 -3 17 -28 17
-25 0 -31 -4 -28 -17z"/>
<path d="M203 222 c-29 -4 -29 -18 -1 -25 25 -7 31 -4 26 15 -2 7 -13 12 -25
10z"/>
<path d="M3773 6444 c42 -50 59 -66 65 -60 6 7 -67 86 -79 86 -4 0 2 -12 14
-26z"/>
<path d="M3264 5997 c-3 -9 -3 -25 1 -34 6 -16 8 -16 18 5 7 16 7 26 -1 34 -8
8 -13 7 -18 -5z"/>
<path d="M8320 5880 c0 -10 -2 -24 -3 -32 -2 -7 -2 -9 1 -5 2 4 9 4 15 -2 16
-12 67 -2 67 14 0 6 -18 19 -40 28 -38 15 -40 14 -40 -3z m45 -20 c-3 -5 -10
-10 -16 -10 -5 0 -9 5 -9 10 0 6 7 10 16 10 8 0 12 -4 9 -10z"/>
<path d="M8365 5800 c-3 -5 1 -10 10 -10 9 0 13 5 10 10 -3 6 -8 10 -10 10 -2
0 -7 -4 -10 -10z"/>
<path d="M8260 5770 c0 -5 5 -10 11 -10 5 0 7 5 4 10 -3 6 -8 10 -11 10 -2 0
-4 -4 -4 -10z"/>
<path d="M8240 5706 c0 -9 30 -14 35 -6 4 6 -3 10 -14 10 -12 0 -21 -2 -21 -4z"/>
<path d="M8270 5660 c-8 -5 -11 -12 -7 -16 4 -4 13 -2 19 4 15 15 7 24 -12 12z"/>
<path d="M3272 5623 c3 -33 6 -38 28 -38 32 0 38 27 11 54 -31 31 -43 26 -39
-16z"/>
<path d="M8005 5559 c-8 -12 23 -49 42 -49 7 0 13 8 13 18 0 33 -40 56 -55 31z"/>
<path d="M2117 5514 c-8 -8 1 -24 14 -24 5 0 9 7 9 15 0 15 -12 20 -23 9z"/>
<path d="M3284 5425 c-7 -17 -1 -107 16 -235 11 -82 6 -169 -10 -200 -11 -21
16 -77 40 -83 26 -7 56 32 64 84 3 24 7 93 7 152 1 104 0 110 -25 136 -14 15
-26 33 -26 40 0 7 -7 37 -16 67 -15 54 -38 71 -50 39z"/>
<path d="M6430 5414 c0 -14 3 -14 15 -4 8 7 15 14 15 16 0 2 -7 4 -15 4 -8 0
-15 -7 -15 -16z"/>
<path d="M1936 5268 c-7 -13 -17 -35 -20 -51 -5 -23 -2 -29 19 -39 23 -10 29
-9 53 15 21 21 24 29 14 39 -7 7 -12 22 -12 35 0 31 -35 31 -54 1z"/>
<path d="M7295 4960 c3 -5 8 -10 11 -10 2 0 4 5 4 10 0 6 -5 10 -11 10 -5 0
-7 -4 -4 -10z"/>
<path d="M9110 4929 c-22 -9 -23 -11 -8 -20 19 -11 58 4 58 21 0 12 -17 12
-50 -1z"/>
<path d="M7277 4913 c-12 -11 -8 -23 8 -23 8 0 15 7 15 15 0 16 -12 20 -23 8z"/>
<path d="M7267 4864 c-8 -8 3 -34 14 -34 5 0 9 9 9 20 0 19 -11 26 -23 14z"/>
<path d="M9155 4851 c-3 -6 0 -11 7 -12 7 0 3 -4 -9 -9 -13 -5 -23 -14 -23
-20 0 -17 -43 -61 -50 -50 -4 6 -18 0 -36 -17 -18 -17 -41 -27 -61 -27 -44 -1
-30 -16 16 -16 21 0 44 -6 50 -14 7 -8 26 -18 42 -21 16 -4 29 -13 29 -21 0
-11 8 -14 28 -12 22 2 27 7 24 28 -1 14 -3 34 -2 45 0 60 -1 70 -10 73 -17 6
-11 32 9 40 17 6 18 9 6 25 -8 12 -15 14 -20 8z"/>
<path d="M3280 4823 c0 -10 9 -45 20 -78 10 -33 22 -77 25 -97 3 -21 10 -38
16 -38 19 0 58 55 59 82 0 46 -44 134 -71 141 -38 11 -49 8 -49 -10z"/>
<path d="M8955 4819 c-11 -17 1 -21 15 -4 8 9 8 15 2 15 -6 0 -14 -5 -17 -11z"/>
<path d="M9060 4813 c0 -4 5 -15 10 -23 8 -13 10 -13 10 2 0 9 -4 20 -10 23
-5 3 -10 3 -10 -2z"/>
<path d="M9006 4795 c-22 -17 -17 -29 8 -19 9 3 16 12 16 20 0 17 0 17 -24 -1z"/>
<path d="M9191 4764 c0 -11 3 -14 6 -6 3 7 2 16 -1 19 -3 4 -6 -2 -5 -13z"/>
<path d="M5080 4685 c0 -5 5 -17 10 -25 5 -8 10 -10 10 -5 0 6 -5 17 -10 25
-5 8 -10 11 -10 5z"/>
<path d="M5000 4610 c0 -5 5 -10 11 -10 5 0 7 5 4 10 -3 6 -8 10 -11 10 -2 0
-4 -4 -4 -10z"/>
<path d="M4965 4539 c-11 -16 -1 -19 13 -3 7 8 8 14 3 14 -5 0 -13 -5 -16 -11z"/>
<path d="M3291 4522 c-10 -18 -7 -184 3 -200 3 -5 0 -15 -8 -21 -10 -9 -15 -9
-18 -1 -5 17 -38 0 -38 -19 0 -24 46 -66 55 -51 5 8 11 8 21 -1 10 -8 14 -8
14 0 0 6 11 11 24 11 19 0 26 7 31 31 4 19 15 33 26 36 18 5 26 37 20 81 -3
19 -91 140 -107 146 -8 3 -18 -3 -23 -12z"/>
<path d="M4940 4502 c0 -11 39 -12 45 -1 4 5 -5 9 -19 9 -14 0 -26 -4 -26 -8z"/>
<path d="M7471 4431 c-7 -5 -12 -14 -10 -20 2 -6 10 -2 17 9 14 22 13 23 -7
11z"/>
<path d="M7555 4410 c3 -5 8 -10 11 -10 2 0 4 5 4 10 0 6 -5 10 -11 10 -5 0
-7 -4 -4 -10z"/>
<path d="M3300 4196 c0 -2 7 -6 15 -10 8 -3 15 -1 15 4 0 6 -7 10 -15 10 -8 0
-15 -2 -15 -4z"/>
<path d="M4890 4160 c0 -5 5 -10 11 -10 5 0 7 5 4 10 -3 6 -8 10 -11 10 -2 0
-4 -4 -4 -10z"/>
<path d="M4836 3997 c3 -10 9 -15 12 -12 3 3 0 11 -7 18 -10 9 -11 8 -5 -6z"/>
<path d="M6040 3894 c0 -8 9 -14 19 -14 11 0 28 -3 38 -7 15 -6 16 -4 5 9 -17
21 -62 30 -62 12z"/>
<path d="M4870 3890 c0 -5 5 -10 11 -10 5 0 7 5 4 10 -3 6 -8 10 -11 10 -2 0
-4 -4 -4 -10z"/>
<path d="M4830 3821 c0 -6 5 -13 10 -16 6 -4 8 -11 5 -16 -3 -5 1 -6 10 -3 14
6 14 8 -1 25 -19 21 -24 23 -24 10z"/>
<path d="M4746 3771 c-3 -5 3 -11 13 -14 14 -3 18 -1 14 9 -6 16 -19 18 -27 5z"/>
<path d="M4848 3733 c7 -3 16 -2 19 1 4 3 -2 6 -13 5 -11 0 -14 -3 -6 -6z"/>
<path d="M9580 3650 c-13 -8 -12 -10 3 -10 9 0 17 5 17 10 0 12 -1 12 -20 0z"/>
<path d="M9578 3623 c7 -3 16 -2 19 1 4 3 -2 6 -13 5 -11 0 -14 -3 -6 -6z"/>
<path d="M4896 3602 c-2 -4 -1 -14 5 -22 7 -12 9 -10 9 8 0 23 -5 28 -14 14z"/>
<path d="M4856 3591 c-3 -5 1 -14 8 -20 12 -10 13 -8 9 8 -6 23 -9 25 -17 12z"/>
<path d="M4770 3581 c0 -5 7 -12 16 -15 24 -9 28 -7 14 9 -14 17 -30 20 -30 6z"/>
<path d="M2848 3443 c-22 -5 -23 -26 -4 -42 28 -23 66 9 44 37 -11 12 -12 13
-40 5z"/>
<path d="M3064 3372 c-6 -4 -14 -17 -18 -29 -7 -21 -4 -23 31 -23 22 0 47 6
57 13 17 13 17 14 1 30 -17 18 -52 22 -71 9z"/>
<path d="M4907 3309 c-9 -6 -17 -17 -17 -24 0 -20 6 -19 30 5 22 22 14 34 -13
19z"/>
<path d="M4920 3279 c0 -5 5 -7 10 -4 6 3 10 8 10 11 0 2 -4 4 -10 4 -5 0 -10
-5 -10 -11z"/>
<path d="M2357 3235 c-5 -10 0 -15 14 -15 12 0 19 5 17 12 -6 18 -25 20 -31 3z"/>
<path d="M5947 3140 c-6 -48 -22 -70 -51 -70 -21 -1 -20 -1 3 -21 l24 -20 28
33 c21 25 27 41 25 66 -5 53 -22 60 -29 12z"/>
<path d="M5678 2993 c7 -3 16 -2 19 1 4 3 -2 6 -13 5 -11 0 -14 -3 -6 -6z"/>
<path d="M5806 2978 c-34 -47 -9 -153 37 -162 115 -25 127 -25 127 -4 0 5 -8
7 -19 3 -32 -10 -67 12 -90 56 l-23 43 24 18 c13 9 32 18 43 18 18 1 17 3 -8
25 -35 31 -71 32 -91 3z"/>
<path d="M6014 2873 c-16 -32 -18 -43 -8 -43 18 0 36 36 32 63 -2 18 -7 15
-24 -20z"/>
<path d="M4938 2873 c7 -3 16 -2 19 1 4 3 -2 6 -13 5 -11 0 -14 -3 -6 -6z"/>
<path d="M5635 2820 c-22 -4 -33 -8 -26 -9 10 -1 3 -13 -19 -36 l-34 -35 26
-27 c23 -22 34 -26 75 -23 26 2 78 4 116 4 37 0 67 4 67 8 0 4 -18 17 -39 28
-22 11 -54 38 -72 60 -18 22 -37 39 -43 39 -6 -1 -29 -5 -51 -9z"/>
<path d="M3107 2783 c-14 -13 -7 -43 12 -53 27 -14 37 -13 55 5 13 13 13 20 3
35 -11 19 -56 27 -70 13z"/>
<path d="M5204 2770 c-12 -5 -25 -13 -29 -19 -10 -18 18 -12 45 9 26 21 20 25
-16 10z"/>
<path d="M6191 2587 c-14 -35 -14 -50 -1 -42 18 11 29 41 20 55 -7 11 -11 8
-19 -13z"/>
<path d="M2660 2540 c0 -13 48 -36 56 -27 4 3 4 13 1 22 -7 17 -57 21 -57 5z"/>
<path d="M5865 2532 c-52 -2 -288 -32 -293 -36 -1 -2 96 -1 215 1 120 2 229 3
243 3 20 0 22 2 10 10 -8 5 -32 10 -53 10 -21 0 -46 3 -55 8 -9 4 -39 6 -67 4z"/>
<path d="M6087 2498 c33 -16 35 -34 5 -69 -25 -30 -25 -31 -4 -20 13 7 27 23
32 37 5 13 14 24 19 24 5 0 7 9 4 20 -4 16 -13 20 -42 19 -33 0 -34 -1 -14
-11z"/>
<path d="M2837 2474 c-11 -11 3 -24 24 -24 12 0 19 5 17 13 -5 14 -31 21 -41
11z"/>
<path d="M4463 2434 c-3 -9 0 -20 8 -25 21 -13 29 -11 29 10 0 24 -29 36 -37
15z"/>
<path d="M4450 2354 c0 -20 18 -54 29 -54 14 0 21 43 9 57 -15 18 -38 16 -38
-3z"/>
<path d="M2480 2235 c-36 -8 -71 -13 -79 -10 -25 9 -132 -7 -128 -19 2 -6 14
-10 26 -9 13 2 20 -1 16 -7 -3 -6 1 -10 9 -10 9 0 16 -4 16 -9 0 -17 27 -19
58 -4 18 9 29 20 25 26 -3 5 -1 7 5 3 6 -3 13 -20 17 -36 5 -22 12 -30 28 -30
11 0 28 -6 36 -14 25 -21 85 -9 118 25 15 16 37 29 48 29 58 1 83 70 26 70
-14 0 -55 2 -91 5 -39 3 -91 -1 -130 -10z"/>
<path d="M6116 2145 c-19 -19 -21 -37 -3 -34 43 5 50 -21 15 -58 -18 -19 -19
-23 -5 -23 9 0 23 12 30 28 12 24 12 32 -3 65 -16 36 -18 37 -34 22z"/>
<path d="M4420 2131 c0 -17 -3 -18 -37 -6 -22 8 -47 10 -64 5 -15 -5 -46 -4
-69 1 -46 10 -63 8 -130 -23 -24 -11 -71 -22 -104 -25 -34 -3 -79 -11 -101
-19 -22 -7 -47 -14 -55 -14 -26 0 -85 -19 -105 -33 -17 -13 -16 -15 15 -30 46
-23 325 -34 435 -17 100 16 121 18 165 19 29 1 39 8 58 37 12 19 20 39 16 45
-3 6 -6 26 -6 45 0 19 -4 34 -9 34 -5 0 -9 -8 -9 -19z"/>
<path d="M6230 2131 c0 -5 5 -13 10 -16 6 -3 10 -2 10 4 0 5 -4 13 -10 16 -5
3 -10 2 -10 -4z"/>
<path d="M4247 1785 c-17 -12 -17 -14 4 -34 13 -12 26 -21 30 -21 16 0 16 30
1 48 -15 17 -20 18 -35 7z"/>
<path d="M4636 1708 c-7 -72 5 -150 33 -221 9 -22 8 -34 -4 -58 -15 -29 -15
-29 14 -29 25 0 30 5 36 30 9 41 -4 135 -27 197 -15 41 -17 57 -8 73 16 29 3
80 -20 80 -15 0 -19 -12 -24 -72z"/>
<path d="M4624 1335 c-10 -24 -1 -33 24 -24 12 5 22 15 22 24 0 19 -39 20 -46
0z"/>
<path d="M4655 1270 c-9 -15 25 -60 41 -53 11 4 11 9 -2 34 -15 30 -28 36 -39
19z"/>
<path d="M4696 1158 c-9 -29 -14 -88 -8 -88 19 1 32 20 38 58 5 35 4 42 -10
42 -9 0 -18 -6 -20 -12z"/>
<path d="M4931 911 c-9 -16 -11 -40 -6 -76 11 -90 119 -291 149 -279 8 3 19
-4 26 -15 6 -12 20 -21 32 -21 20 0 19 1 -5 20 -38 30 -116 138 -145 198 -14
32 -27 83 -31 125 -6 67 -7 70 -20 48z"/>
<path d="M5260 409 c0 -5 5 -7 10 -4 6 3 10 8 10 11 0 2 -4 4 -10 4 -5 0 -10
-5 -10 -11z"/>
<path d="M5220 390 c0 -34 55 -80 96 -80 12 0 15 6 10 26 -5 17 -3 23 4 19 5
-3 10 -13 10 -21 0 -9 10 -14 28 -14 21 0 32 7 41 27 7 16 8 30 3 35 -9 9 -55
11 -117 6 -11 -1 -32 1 -47 5 -18 5 -28 3 -28 -3z"/>
<path d="M4466 283 c-9 -21 1 -32 23 -26 11 3 17 11 15 18 -8 20 -32 26 -38 8z"/>
<path d="M4545 180 c3 -5 8 -10 11 -10 2 0 4 5 4 10 0 6 -5 10 -11 10 -5 0 -7
-4 -4 -10z"/>
</g>
</svg>
